{"glyphs":{"0":{"ha":533,"x_min":8,"x_max":525,"o":"m 8 729 q 74 921 8 856 q 263 986 139 986 q 457 919 389 986 q 525 729 525 853 l 525 244 q 457 53 525 119 q 263 -14 389 -14 q 74 52 139 -14 q 8 244 8 118 l 8 729 m 258 225 q 267 203 258 203 q 275 225 275 203 l 275 747 q 267 769 275 769 q 258 747 258 769 l 258 225 z "},"1":{"ha":325,"x_min":10,"x_max":317,"o":"m 67 0 l 67 742 l 58 756 l 10 756 l 10 972 l 317 972 l 317 0 l 67 0 z "},"2":{"ha":535,"x_min":10,"x_max":526,"o":"m 10 729 q 78 919 10 853 q 272 986 146 986 q 461 921 396 986 q 526 729 526 856 l 526 717 q 521 600 526 656 q 501 498 515 544 q 463 417 488 451 q 403 361 439 382 l 358 336 q 302 303 322 315 q 273 283 282 292 q 262 267 264 274 q 260 250 260 260 l 260 239 l 526 239 l 526 0 l 10 0 l 10 207 q 15 310 10 268 q 34 381 21 351 q 71 431 47 410 q 129 472 94 453 l 167 493 q 231 531 208 517 q 263 556 253 544 q 275 581 274 568 q 276 614 276 593 l 276 747 q 268 769 276 769 q 260 747 260 769 l 260 569 l 10 569 l 10 729 z "},"3":{"ha":533,"x_min":8,"x_max":525,"o":"m 275 747 q 267 769 275 769 q 258 747 258 769 l 258 639 l 8 639 l 8 729 q 76 919 8 853 q 271 986 144 986 q 460 921 394 986 q 525 729 525 856 l 525 717 q 513 619 525 660 q 481 551 500 578 q 438 510 461 524 q 390 496 414 497 l 390 479 q 438 465 414 479 q 481 424 461 451 q 513 354 500 396 q 525 256 525 313 l 525 243 q 460 51 525 117 q 271 -14 394 -14 q 76 53 144 -14 q 8 243 8 119 l 8 333 l 258 333 l 258 225 q 267 203 258 203 q 275 225 275 203 l 275 300 q 274 344 275 326 q 266 373 272 363 q 247 388 260 383 q 211 392 235 392 l 188 392 l 188 581 l 211 581 q 247 585 235 581 q 266 599 260 589 q 274 628 272 610 q 275 672 275 646 l 275 747 z "},"4":{"ha":533,"x_min":8,"x_max":525,"o":"m 525 972 l 525 0 l 275 0 l 275 251 l 8 251 l 8 972 l 258 972 l 258 468 l 275 468 l 275 972 l 525 972 z "},"5":{"ha":533,"x_min":8,"x_max":525,"o":"m 8 972 l 497 972 l 497 756 l 258 756 l 258 703 l 264 703 q 378 733 326 733 q 488 682 450 733 q 525 556 525 631 l 525 244 q 460 52 525 118 q 271 -14 394 -14 q 76 53 144 -14 q 8 244 8 119 l 8 394 l 258 394 l 258 225 q 267 203 258 203 q 275 225 275 203 l 275 535 q 267 556 275 556 q 258 535 258 556 l 258 417 l 8 417 l 8 972 z "},"6":{"ha":533,"x_min":8,"x_max":525,"o":"m 275 613 l 275 747 q 267 769 275 769 q 260 747 260 769 l 260 564 l 276 564 q 317 588 292 581 q 368 596 343 596 q 428 585 400 596 q 478 551 457 574 q 513 493 500 528 q 525 411 525 458 l 525 244 q 457 53 525 119 q 263 -14 389 -14 q 74 52 139 -14 q 8 244 8 118 l 8 729 q 74 921 8 856 q 263 986 139 986 q 457 919 389 986 q 525 729 525 853 l 525 613 l 275 613 m 258 225 q 267 203 258 203 q 275 225 275 203 l 275 343 q 267 364 275 364 q 258 343 258 364 l 258 225 z "},"7":{"ha":469,"x_min":8,"x_max":461,"o":"m 8 972 l 461 972 l 461 756 l 297 0 l 40 0 l 203 743 l 192 756 l 8 756 l 8 972 z "},"8":{"ha":533,"x_min":8,"x_max":525,"o":"m 8 743 q 21 847 8 801 q 63 923 33 892 q 140 970 92 954 q 260 986 188 986 q 384 969 333 986 q 466 921 435 953 q 511 844 497 889 q 525 743 525 800 l 525 711 q 515 633 525 668 q 487 574 504 599 q 447 535 469 549 q 400 521 424 521 l 400 504 q 447 491 424 504 q 487 450 469 478 q 515 378 504 422 q 525 274 525 335 l 525 244 q 511 134 525 182 q 466 53 497 86 q 385 3 435 21 q 261 -14 335 -14 q 140 3 189 -14 q 63 52 92 19 q 21 133 33 85 q 8 244 8 182 l 8 274 q 40 447 8 389 q 119 504 71 504 l 119 521 q 40 573 71 521 q 8 711 8 625 l 8 743 m 258 643 q 267 621 258 621 q 275 643 275 621 l 275 747 q 267 769 275 769 q 258 747 258 769 l 258 643 m 258 225 q 267 203 258 203 q 275 225 275 203 l 275 382 q 267 404 275 404 q 258 382 258 404 l 258 225 z "},"9":{"ha":533,"x_min":8,"x_max":525,"o":"m 258 360 l 258 225 q 267 203 258 203 q 274 225 274 203 l 274 408 l 257 408 q 217 384 242 392 q 165 376 192 376 q 105 388 133 376 q 55 422 76 399 q 21 479 33 444 q 8 561 8 514 l 8 728 q 76 919 8 853 q 271 986 144 986 q 460 920 394 986 q 525 728 525 854 l 525 243 q 460 51 525 117 q 271 -14 394 -14 q 76 53 144 -14 q 8 243 8 119 l 8 360 l 258 360 m 275 747 q 267 769 275 769 q 258 747 258 769 l 258 629 q 267 608 258 608 q 275 629 275 608 l 275 747 z "},"\u0000":{"ha":0,"x_min":0,"x_max":0,"o":""},"\r":{"ha":347,"x_min":0,"x_max":0,"o":""}," ":{"ha":222,"x_min":0,"x_max":0,"o":""},"F":{"ha":372,"x_min":8,"x_max":369,"o":"m 258 756 l 258 594 l 363 594 l 363 378 l 258 378 l 258 0 l 8 0 l 8 972 l 369 972 l 369 756 l 258 756 z "},"G":{"ha":533,"x_min":8,"x_max":525,"o":"m 258 544 l 525 544 l 525 0 l 356 0 l 356 78 l 339 78 q 289 10 328 33 q 203 -14 250 -14 q 133 1 168 -14 q 71 47 99 15 q 26 126 43 78 q 8 244 8 175 l 8 729 q 74 921 8 856 q 263 986 139 986 q 457 919 389 986 q 525 729 525 853 l 525 572 l 275 572 l 275 747 q 267 769 275 769 q 258 747 258 769 l 258 544 m 258 225 q 267 203 258 203 q 275 225 275 203 l 275 383 l 258 383 l 258 225 z "},"H":{"ha":533,"x_min":8,"x_max":525,"o":"m 525 972 l 525 0 l 275 0 l 275 390 l 258 390 l 258 0 l 8 0 l 8 972 l 258 972 l 258 607 l 275 607 l 275 972 l 525 972 z "},"I":{"ha":267,"x_min":8,"x_max":258,"o":"m 258 972 l 258 0 l 8 0 l 8 972 l 258 972 z "},"J":{"ha":533,"x_min":8,"x_max":525,"o":"m 525 972 l 525 244 q 457 53 525 119 q 261 -14 389 -14 q 72 52 135 -14 q 8 244 8 118 l 8 465 l 258 465 l 258 225 q 267 203 258 203 q 275 225 275 203 l 275 972 l 525 972 z "},"K":{"ha":543,"x_min":8,"x_max":539,"o":"m 258 593 l 275 593 l 275 972 l 539 972 l 481 486 l 539 0 l 275 0 l 275 378 l 258 378 l 258 0 l 8 0 l 8 972 l 258 972 l 258 593 z "},"L":{"ha":374,"x_min":8,"x_max":369,"o":"m 258 972 l 258 217 l 369 217 l 369 0 l 8 0 l 8 972 l 258 972 z "},"M":{"ha":669,"x_min":8,"x_max":661,"o":"m 328 972 l 328 439 l 344 439 l 344 972 l 661 972 l 661 0 l 432 0 l 461 528 l 444 528 l 411 0 l 258 0 l 225 528 l 208 528 l 238 0 l 8 0 l 8 972 l 328 972 z "},"N":{"ha":556,"x_min":8,"x_max":547,"o":"m 547 972 l 547 0 l 279 0 l 215 528 l 201 528 l 258 0 l 8 0 l 8 972 l 276 972 l 346 439 l 360 439 l 297 972 l 547 972 z "},"O":{"ha":533,"x_min":8,"x_max":525,"o":"m 8 729 q 74 921 8 856 q 263 986 139 986 q 457 919 389 986 q 525 729 525 853 l 525 244 q 457 53 525 119 q 263 -14 389 -14 q 74 52 139 -14 q 8 244 8 118 l 8 729 m 258 225 q 267 203 258 203 q 275 225 275 203 l 275 747 q 267 769 275 769 q 258 747 258 769 l 258 225 z "},"P":{"ha":533,"x_min":8,"x_max":525,"o":"m 264 972 q 458 888 390 972 q 525 621 525 804 l 525 618 q 509 460 525 524 q 460 358 493 396 q 378 303 428 319 q 261 286 328 286 l 258 286 l 258 0 l 8 0 l 8 972 l 264 972 m 258 503 l 261 503 q 274 506 272 503 q 275 525 275 510 l 275 733 q 274 752 275 749 q 261 756 272 756 l 258 756 l 258 503 z "},"Q":{"ha":533,"x_min":8,"x_max":525,"o":"m 8 729 q 74 921 8 856 q 263 986 139 986 q 457 919 389 986 q 525 729 525 853 l 525 244 q 479 81 525 144 q 349 -4 433 17 l 349 -14 q 351 -27 349 -24 q 364 -31 353 -31 l 472 -31 l 472 -211 l 383 -211 q 294 -203 332 -211 q 231 -176 256 -196 q 194 -124 206 -157 q 182 -37 182 -90 l 182 -6 q 53 77 97 14 q 8 244 8 140 l 8 729 m 258 225 q 267 203 258 203 q 275 225 275 203 l 275 747 q 267 769 275 769 q 258 747 258 769 l 258 225 z "},"R":{"ha":533,"x_min":8,"x_max":539,"o":"m 264 972 q 457 909 389 972 q 525 713 525 846 l 525 706 q 511 599 525 644 q 476 524 497 554 q 431 478 456 493 q 383 464 406 464 l 383 447 q 431 431 406 447 q 476 383 456 414 q 511 308 497 353 q 525 208 525 264 l 525 197 q 527 93 525 142 q 539 0 529 44 l 289 0 q 277 94 279 46 q 275 200 275 143 l 275 325 q 274 344 275 340 q 261 347 272 347 l 258 347 l 258 0 l 8 0 l 8 972 l 264 972 m 258 564 l 261 564 q 274 567 272 564 q 275 586 275 571 l 275 735 q 274 752 275 749 q 261 756 272 756 l 258 756 l 258 564 z "},"S":{"ha":533,"x_min":8,"x_max":525,"o":"m 275 639 l 275 747 q 267 769 275 769 q 258 747 258 769 l 258 669 q 260 644 258 654 q 273 623 263 633 q 306 599 283 613 q 368 563 328 585 l 406 542 q 465 499 442 522 q 501 443 488 475 q 519 367 514 411 q 525 263 525 324 l 525 244 q 457 53 525 119 q 263 -14 389 -14 q 73 52 138 -14 q 8 244 8 118 l 8 333 l 258 333 l 258 225 q 267 203 258 203 q 275 224 275 203 l 275 306 q 273 331 275 321 q 262 350 271 340 q 233 372 253 360 q 176 406 213 385 l 132 431 q 72 476 96 451 q 33 533 47 500 q 14 611 19 567 q 8 717 8 656 l 8 729 q 74 921 8 856 q 263 986 139 986 q 457 919 389 986 q 525 729 525 853 l 525 639 l 275 639 z "},"T":{"ha":511,"x_min":6,"x_max":506,"o":"m 506 756 l 381 756 l 381 0 l 131 0 l 131 756 l 6 756 l 6 972 l 506 972 l 506 756 z "},"U":{"ha":533,"x_min":8,"x_max":525,"o":"m 258 972 l 258 225 q 267 203 258 203 q 275 225 275 203 l 275 972 l 525 972 l 525 244 q 457 53 525 119 q 263 -14 389 -14 q 73 52 138 -14 q 8 244 8 118 l 8 972 l 258 972 z "},"V":{"ha":525,"x_min":4,"x_max":521,"o":"m 254 972 l 254 279 l 271 279 l 271 972 l 521 972 l 454 0 l 65 0 l 4 972 l 254 972 z "},"W":{"ha":703,"x_min":4,"x_max":699,"o":"m 254 972 l 240 436 l 257 436 l 271 972 l 432 972 l 446 436 l 463 436 l 449 972 l 699 972 l 632 0 l 357 0 l 357 343 l 340 343 l 340 0 l 65 0 l 4 972 l 254 972 z "},"X":{"ha":547,"x_min":4,"x_max":543,"o":"m 265 596 l 283 596 l 283 972 l 543 972 l 496 483 l 543 0 l 282 0 l 282 379 l 265 379 l 265 0 l 4 0 l 51 483 l 4 972 l 265 972 l 265 596 z "},"Y":{"ha":525,"x_min":4,"x_max":521,"o":"m 254 972 l 254 607 l 271 607 l 271 972 l 521 972 l 385 264 l 385 0 l 135 0 l 135 264 l 4 972 l 254 972 z "},"Z":{"ha":469,"x_min":4,"x_max":465,"o":"m 450 972 l 450 754 l 260 229 l 269 217 l 465 217 l 465 0 l 4 0 l 4 217 l 196 743 l 185 756 l 18 756 l 18 972 l 450 972 z "},"a":{"ha":506,"x_min":8,"x_max":497,"o":"m 261 497 q 253 519 261 519 q 244 497 244 519 l 244 404 l 8 404 l 8 483 q 72 659 8 596 q 250 722 136 722 q 431 658 364 722 q 497 483 497 594 l 497 0 l 261 0 l 261 53 l 256 53 q 135 -14 203 -14 q 44 25 79 -14 q 8 126 8 64 l 8 242 q 19 297 8 271 q 50 341 31 322 q 96 371 69 360 q 153 382 122 382 l 261 382 l 261 497 m 261 268 l 251 268 q 244 257 244 268 l 244 181 q 251 169 244 169 q 261 176 257 169 l 261 268 z "},"b":{"ha":506,"x_min":8,"x_max":497,"o":"m 8 1000 l 244 1000 l 244 647 l 261 647 q 375 722 297 722 q 465 681 432 722 q 497 554 497 640 l 497 178 q 463 38 497 89 q 369 -14 428 -14 q 306 5 335 -14 q 261 61 278 24 l 244 61 l 244 0 l 8 0 l 8 1000 m 244 200 q 254 193 249 193 q 261 207 261 193 l 261 504 q 254 515 261 515 q 244 508 249 515 l 244 200 z "},"c":{"ha":506,"x_min":8,"x_max":497,"o":"m 244 211 q 253 189 244 189 q 261 211 261 189 l 261 340 l 497 340 l 497 225 q 431 50 497 114 q 250 -14 364 -14 q 72 49 136 -14 q 8 225 8 113 l 8 483 q 72 659 8 596 q 250 722 136 722 q 431 658 364 722 q 497 483 497 594 l 497 368 l 261 368 l 261 497 q 253 519 261 519 q 244 497 244 519 l 244 211 z "},"d":{"ha":506,"x_min":8,"x_max":497,"o":"m 261 0 l 261 63 l 244 63 q 197 6 225 25 q 139 -14 168 -14 q 91 -1 114 -14 q 49 39 68 13 q 19 106 31 65 q 8 199 8 146 l 8 560 q 19 634 8 603 q 47 685 29 665 q 86 714 64 704 q 131 724 108 724 q 198 703 167 724 q 244 646 229 682 l 261 646 l 261 1000 l 497 1000 l 497 0 l 261 0 m 261 508 q 251 515 257 515 q 244 504 244 515 l 244 208 q 251 196 244 196 q 261 203 257 196 l 261 508 z "},"e":{"ha":506,"x_min":8,"x_max":497,"o":"m 497 271 l 497 225 q 431 50 497 114 q 250 -14 364 -14 q 72 49 136 -14 q 8 225 8 113 l 8 483 q 72 659 8 596 q 250 722 136 722 q 431 658 364 722 q 497 483 497 594 l 497 299 l 244 299 l 244 211 q 253 189 244 189 q 261 211 261 189 l 261 271 l 497 271 m 244 424 l 261 424 l 261 497 q 253 519 261 519 q 244 497 244 519 l 244 424 z "},"f":{"ha":390,"x_min":0,"x_max":390,"o":"m 56 750 q 71 869 56 821 q 114 946 86 917 q 181 988 142 975 q 269 1000 221 1000 q 390 988 326 1000 l 390 786 q 372 789 381 788 q 353 790 363 790 q 310 779 329 790 q 292 736 292 768 l 292 708 l 390 708 l 390 506 l 292 506 l 292 0 l 56 0 l 56 506 l 0 506 l 0 708 l 56 708 l 56 750 z "},"g":{"ha":506,"x_min":8,"x_max":497,"o":"m 497 -81 q 435 -237 497 -182 q 254 -292 372 -292 q 72 -236 136 -292 q 8 -81 8 -181 l 8 -36 l 244 -36 l 244 -67 q 253 -89 244 -89 q 261 -64 261 -89 l 261 61 l 244 61 q 199 6 228 25 q 138 -14 171 -14 q 43 38 78 -14 q 8 178 8 89 l 8 540 q 42 674 8 626 q 135 722 75 722 q 198 704 169 722 q 244 647 226 686 l 261 647 l 261 708 l 497 708 l 497 -81 m 261 506 q 251 514 257 514 q 244 501 244 514 l 244 213 q 251 193 244 193 q 261 203 257 193 l 261 506 z "},"h":{"ha":506,"x_min":8,"x_max":497,"o":"m 8 1000 l 244 1000 l 244 647 l 261 647 q 371 722 297 722 q 419 713 396 722 q 459 681 442 703 q 487 624 476 658 q 497 540 497 589 l 497 0 l 261 0 l 261 503 q 254 514 261 514 q 244 507 249 514 l 244 0 l 8 0 l 8 1000 z "},"i":{"ha":256,"x_min":1,"x_max":254,"o":"m 1 860 q 35 945 1 918 q 126 972 68 972 q 219 945 185 972 q 254 860 254 918 q 220 774 254 801 q 128 747 186 747 q 35 774 69 747 q 1 860 1 801 m 246 708 l 246 0 l 10 0 l 10 708 l 246 708 z "},"j":{"ha":254,"x_min":-56,"x_max":253,"o":"m 0 861 q 33 947 0 919 q 125 974 67 974 q 218 947 183 974 q 253 861 253 919 q 219 776 253 803 q 126 749 185 749 q 34 776 68 749 q 0 861 0 803 m 244 -40 q 189 -231 244 -169 q 39 -292 133 -292 q -56 -279 -6 -292 l -56 -76 q -47 -78 -51 -78 q -37 -78 -42 -78 q -5 -70 -18 -78 q 8 -43 8 -62 l 8 708 l 244 708 l 244 -40 z "},"k":{"ha":494,"x_min":8,"x_max":508,"o":"m 244 485 l 261 485 l 269 708 l 500 708 l 446 372 l 508 0 l 278 0 l 261 256 l 244 256 l 244 0 l 8 0 l 8 1000 l 244 1000 l 244 485 z "},"l":{"ha":253,"x_min":8,"x_max":244,"o":"m 8 1000 l 244 1000 l 244 0 l 8 0 l 8 1000 z "},"m":{"ha":758,"x_min":8,"x_max":750,"o":"m 8 708 l 244 708 l 244 647 l 261 647 q 367 722 301 722 q 430 703 403 722 q 474 647 457 683 l 490 647 q 542 703 510 685 q 610 722 574 722 q 661 711 636 722 q 706 677 686 700 q 738 620 726 654 q 750 540 750 586 l 750 0 l 514 0 l 514 504 q 508 515 514 515 q 497 508 504 515 l 497 0 l 261 0 l 261 504 q 254 515 261 515 q 244 508 251 515 l 244 0 l 8 0 l 8 708 z "},"n":{"ha":506,"x_min":8,"x_max":497,"o":"m 8 708 l 244 708 l 244 647 l 261 647 q 371 722 300 722 q 419 713 396 722 q 459 681 442 703 q 487 624 476 658 q 497 540 497 589 l 497 0 l 261 0 l 261 506 q 254 517 261 517 q 244 510 249 517 l 244 0 l 8 0 l 8 708 z "},"o":{"ha":506,"x_min":8,"x_max":497,"o":"m 8 483 q 69 655 8 588 q 250 722 129 722 q 357 704 311 722 q 434 654 403 686 q 481 578 465 622 q 497 483 497 535 l 497 225 q 481 130 497 174 q 434 54 465 86 q 357 4 403 22 q 250 -14 311 -14 q 69 53 129 -14 q 8 225 8 121 l 8 483 m 244 211 q 253 189 244 189 q 261 211 261 189 l 261 497 q 253 519 261 519 q 244 497 244 519 l 244 211 z "},"p":{"ha":506,"x_min":8,"x_max":497,"o":"m 244 708 l 244 633 l 261 633 q 292 678 278 661 q 320 706 307 696 q 345 719 333 715 q 369 722 357 722 q 463 669 429 722 q 497 526 497 615 l 497 176 q 465 38 497 89 q 379 -14 432 -14 q 315 7 347 -14 q 261 75 283 28 l 244 75 l 244 -278 l 8 -278 l 8 708 l 244 708 m 244 213 q 254 206 251 206 q 261 219 261 206 l 261 489 q 254 500 261 500 q 244 493 251 500 l 244 213 z "},"q":{"ha":506,"x_min":8,"x_max":497,"o":"m 497 -278 l 261 -278 l 261 75 l 244 75 q 190 7 222 28 q 126 -14 158 -14 q 41 38 74 -14 q 8 176 8 89 l 8 526 q 42 669 8 615 q 136 722 76 722 q 160 719 149 722 q 185 706 172 715 q 213 678 199 696 q 244 633 228 661 l 261 633 l 261 708 l 497 708 l 497 -278 m 261 493 q 251 500 257 500 q 244 489 244 500 l 244 219 q 251 206 244 206 q 261 213 257 206 l 261 493 z "},"r":{"ha":397,"x_min":8,"x_max":389,"o":"m 244 619 l 250 619 q 295 693 264 664 q 371 722 326 722 q 389 721 383 722 l 389 486 q 370 488 379 488 q 350 489 361 489 q 269 460 293 489 q 244 375 244 432 l 244 0 l 8 0 l 8 708 l 244 708 l 244 619 z "},"s":{"ha":506,"x_min":8,"x_max":497,"o":"m 261 467 l 261 497 q 253 518 261 518 q 244 497 244 518 l 244 496 q 251 467 244 476 q 282 447 258 458 l 381 399 q 467 330 439 369 q 496 219 496 290 l 496 197 q 480 117 496 156 q 433 50 464 79 q 355 3 401 21 q 249 -14 308 -14 q 144 3 189 -14 q 69 52 100 21 q 24 125 39 83 q 8 214 8 167 l 8 242 l 244 242 l 244 214 q 253 193 244 193 q 261 214 261 193 l 261 215 q 253 244 261 235 q 218 265 246 253 l 118 311 q 34 378 58 339 q 10 489 10 418 l 10 511 q 25 591 10 553 q 71 658 40 629 q 147 705 101 688 q 251 722 192 722 q 357 704 311 722 q 434 656 403 686 q 481 584 465 625 q 497 496 497 543 l 497 467 l 261 467 z "},"t":{"ha":396,"x_min":0,"x_max":390,"o":"m 0 708 l 56 708 l 56 861 l 292 875 l 292 708 l 390 708 l 390 506 l 292 506 l 292 250 q 310 207 292 218 q 353 196 329 196 q 372 197 363 196 q 390 200 381 199 l 390 -1 q 269 -14 326 -14 q 181 -2 221 -14 q 114 39 142 10 q 71 116 86 68 q 56 236 56 164 l 56 506 l 0 506 l 0 708 z "},"u":{"ha":506,"x_min":8,"x_max":497,"o":"m 497 0 l 261 0 l 261 61 l 244 61 q 135 -14 206 -14 q 46 28 83 -14 q 8 168 8 71 l 8 708 l 244 708 l 244 197 q 251 186 244 186 q 261 193 257 186 l 261 708 l 497 708 l 497 0 z "},"v":{"ha":500,"x_min":6,"x_max":494,"o":"m 242 708 l 242 279 l 258 279 l 258 708 l 494 708 l 417 0 l 83 0 l 6 708 l 242 708 z "},"w":{"ha":678,"x_min":6,"x_max":672,"o":"m 242 708 l 228 335 l 244 335 l 258 708 l 419 708 l 433 335 l 450 335 l 436 708 l 672 708 l 594 0 l 347 0 l 347 228 l 331 228 l 331 0 l 83 0 l 6 708 l 242 708 z "},"x":{"ha":504,"x_min":0,"x_max":504,"o":"m 243 435 l 261 435 l 261 708 l 504 708 l 467 353 l 503 0 l 260 0 l 260 276 l 243 276 l 243 0 l 0 0 l 38 353 l 0 708 l 243 708 l 243 435 z "},"y":{"ha":506,"x_min":8,"x_max":497,"o":"m 497 -81 q 435 -237 497 -182 q 254 -292 372 -292 q 72 -236 136 -292 q 8 -81 8 -181 l 8 -36 l 244 -36 l 244 -67 q 253 -89 244 -89 q 261 -64 261 -89 l 261 61 l 244 61 q 135 -14 206 -14 q 46 28 83 -14 q 8 168 8 71 l 8 708 l 244 708 l 244 197 q 251 186 244 186 q 261 193 257 186 l 261 708 l 497 708 l 497 -81 z "},"z":{"ha":435,"x_min":8,"x_max":426,"o":"m 8 0 l 8 201 l 158 490 l 151 506 l 15 506 l 15 708 l 417 708 l 417 507 l 267 217 l 275 203 l 426 203 l 426 0 l 8 0 z "},"$":{"ha":533,"x_min":8,"x_max":525,"o":"m 275 639 l 275 747 q 267 769 275 769 q 258 747 258 769 l 258 669 q 260 644 258 654 q 273 623 263 633 q 306 599 283 613 q 368 563 328 585 l 406 542 q 465 499 442 522 q 501 443 488 475 q 519 367 514 411 q 525 263 525 324 l 525 244 q 484 86 525 149 q 365 0 443 24 l 378 -137 l 156 -137 l 168 -1 q 8 244 8 43 l 8 333 l 258 333 l 258 225 q 267 203 258 203 q 275 224 275 203 l 275 306 q 273 331 275 321 q 262 350 271 340 q 233 372 253 360 q 176 406 213 385 l 132 431 q 72 476 96 451 q 33 533 47 500 q 14 611 19 567 q 8 717 8 656 l 8 729 q 168 974 8 929 l 156 1110 l 378 1110 l 365 972 q 484 887 443 949 q 525 729 525 825 l 525 639 l 275 639 z "},"¢":{"ha":506,"x_min":8,"x_max":497,"o":"m 244 211 q 253 189 244 189 q 261 211 261 189 l 261 340 l 497 340 l 497 225 q 459 84 497 142 q 351 3 421 26 l 364 -139 l 142 -139 l 154 0 q 46 81 83 24 q 8 225 8 139 l 8 483 q 46 627 8 569 q 154 708 83 685 l 142 846 l 364 846 l 351 706 q 459 624 421 682 q 497 483 497 567 l 497 368 l 261 368 l 261 497 q 253 519 261 519 q 244 497 244 519 l 244 211 z "},"¥":{"ha":525,"x_min":4,"x_max":521,"o":"m 254 972 l 254 607 l 271 607 l 271 972 l 521 972 l 432 508 l 517 508 l 517 356 l 403 356 l 399 339 l 517 339 l 517 186 l 385 186 l 385 0 l 135 0 l 135 186 l 8 186 l 8 339 l 121 339 l 118 356 l 8 356 l 8 508 l 90 508 l 4 972 l 254 972 z "},"§":{"ha":507,"x_min":8,"x_max":497,"o":"m 261 703 l 261 761 q 253 782 261 782 q 244 761 244 782 l 244 676 q 251 648 244 657 q 282 628 258 639 l 381 579 q 467 510 439 550 q 496 400 496 471 l 496 294 q 484 221 496 254 q 444 161 472 188 q 483 105 471 138 q 496 24 496 72 l 496 -82 q 480 -162 496 -124 q 433 -229 464 -200 q 355 -276 401 -258 q 249 -293 308 -293 q 144 -276 189 -293 q 69 -227 100 -258 q 24 -155 39 -196 q 8 -65 8 -114 l 8 -10 l 244 -10 l 244 -65 q 253 -86 244 -86 q 261 -65 261 -86 l 261 19 q 253 48 261 39 q 218 69 246 57 l 118 115 q 34 183 58 143 q 10 293 10 222 l 10 399 q 22 467 10 435 q 61 528 35 500 q 22 585 33 551 q 10 669 10 619 l 10 775 q 25 855 10 817 q 71 922 40 893 q 147 969 101 951 q 251 986 192 986 q 357 968 311 986 q 434 919 403 950 q 481 848 465 889 q 497 760 497 807 l 497 703 l 261 703 m 246 283 q 259 298 257 290 q 261 311 261 306 l 261 396 q 260 411 261 407 q 247 400 249 407 q 244 385 244 393 l 244 300 q 246 283 244 289 z "},"D":{"ha":533,"x_min":8,"x_max":525,"o":"m 264 972 q 457 912 389 972 q 525 729 525 851 l 525 243 q 457 60 525 119 q 264 0 389 0 l 8 0 l 8 972 l 264 972 m 260 217 l 263 217 q 274 220 272 217 q 275 239 275 224 l 275 733 q 274 752 275 749 q 263 756 272 756 l 260 756 l 260 217 z "},"…":{"ha":760,"x_min":8,"x_max":751,"o":"m 8 119 q 128 244 8 244 q 217 212 186 244 q 247 117 247 179 q 217 25 247 57 q 128 -7 186 -7 q 8 119 8 -7 m 261 119 q 381 244 261 244 q 469 212 439 244 q 500 117 500 179 q 469 25 500 57 q 381 -7 439 -7 q 261 119 261 -7 m 513 119 q 632 244 513 244 q 721 212 690 244 q 751 117 751 179 q 721 25 751 57 q 632 -7 690 -7 q 513 119 513 -7 z "},"÷":{"ha":525,"x_min":8,"x_max":517,"o":"m 517 388 l 8 388 l 8 568 l 517 568 l 517 388 m 155 695 q 262 808 155 808 q 342 778 315 808 q 370 693 370 749 q 342 610 370 639 q 262 581 315 581 q 155 695 155 581 m 155 260 q 262 373 155 373 q 342 343 315 373 q 370 258 370 314 q 342 175 370 204 q 262 147 315 147 q 155 260 155 147 z "},"!":{"ha":267,"x_min":8,"x_max":258,"o":"m 258 972 l 258 833 l 231 254 l 36 254 l 8 833 l 8 972 l 258 972 m 14 119 q 133 244 14 244 q 222 212 192 244 q 253 117 253 179 q 222 25 253 57 q 133 -7 192 -7 q 14 119 14 -7 z "},".":{"ha":256,"x_min":8,"x_max":247,"o":"m 8 119 q 128 244 8 244 q 217 212 186 244 q 247 117 247 179 q 217 25 247 57 q 128 -7 186 -7 q 8 119 8 -7 z "},",":{"ha":256,"x_min":-12,"x_max":247,"o":"m 31 224 l 247 224 l 135 -133 l -12 -133 l 31 224 z "},":":{"ha":256,"x_min":8,"x_max":247,"o":"m 8 119 q 128 244 8 244 q 217 212 186 244 q 247 117 247 179 q 217 25 247 57 q 128 -7 186 -7 q 8 119 8 -7 m 8 592 q 128 717 8 717 q 217 684 186 717 q 247 589 247 651 q 217 497 247 529 q 128 465 186 465 q 8 592 8 465 z "},"”":{"ha":493,"x_min":8,"x_max":483,"o":"m 261 1000 l 483 1000 l 414 564 l 247 564 l 261 1000 m 22 1000 l 244 1000 l 175 564 l 8 564 l 22 1000 z "},"“":{"ha":493,"x_min":8,"x_max":483,"o":"m 231 564 l 8 564 l 78 1000 l 244 1000 l 231 564 m 469 564 l 247 564 l 317 1000 l 483 1000 l 469 564 z "},"’":{"ha":253,"x_min":8,"x_max":244,"o":"m 22 1000 l 244 1000 l 175 564 l 8 564 l 22 1000 z "},"‘":{"ha":253,"x_min":8,"x_max":244,"o":"m 231 564 l 8 564 l 78 1000 l 244 1000 l 231 564 z "},"?":{"ha":535,"x_min":10,"x_max":526,"o":"m 10 729 q 78 919 10 853 q 272 986 146 986 q 461 921 396 986 q 526 729 526 856 l 526 717 q 518 621 526 661 q 496 549 510 581 q 466 495 482 518 q 433 451 450 472 l 432 449 q 389 385 407 417 q 371 306 371 354 l 371 254 l 135 254 l 135 290 q 142 380 135 343 q 163 444 150 417 q 190 490 175 471 q 219 526 206 510 l 221 528 q 242 553 232 540 q 259 583 251 567 q 272 619 267 599 q 276 669 276 640 l 276 747 q 268 769 276 769 q 260 747 260 769 l 260 597 l 10 597 l 10 729 m 132 119 q 251 244 132 244 q 340 212 310 244 q 371 117 371 179 q 340 25 371 57 q 251 -7 310 -7 q 132 119 132 -7 z "},"|":{"ha":267,"x_min":8,"x_max":258,"o":"m 8 -215 l 8 1000 l 258 1000 l 258 -215 l 8 -215 z "},"/":{"ha":361,"x_min":8,"x_max":353,"o":"m 8 -111 l 131 1014 l 353 1014 l 231 -111 l 8 -111 z "},"\\":{"ha":361,"x_min":8,"x_max":353,"o":"m 8 1014 l 231 1014 l 353 -111 l 131 -111 l 8 1014 z "},"⁄":{"ha":299,"x_min":10,"x_max":290,"o":"m 144 0 l 10 0 l 156 1000 l 290 1000 l 144 0 z "},"<":{"ha":418,"x_min":8,"x_max":410,"o":"m 408 138 l 8 282 l 8 451 l 410 599 l 410 376 l 150 376 l 150 360 l 408 360 l 408 138 z "},">":{"ha":418,"x_min":7,"x_max":408,"o":"m 8 599 l 408 454 l 408 285 l 7 138 l 7 360 l 267 360 l 267 376 l 8 376 l 8 599 z "},"%":{"ha":940,"x_min":8,"x_max":932,"o":"m 8 747 q 19 844 8 800 q 53 919 29 888 q 115 968 76 950 q 208 986 153 986 q 303 968 264 986 q 367 918 342 950 q 403 842 392 886 q 414 747 414 799 l 414 656 q 403 560 414 604 q 367 485 392 517 q 303 435 342 453 q 208 417 264 417 q 115 435 153 417 q 53 484 76 453 q 19 560 29 515 q 8 656 8 604 l 8 747 m 608 972 l 747 972 l 331 0 l 192 0 l 608 972 m 203 600 q 211 578 203 578 q 219 600 219 578 l 219 803 q 211 825 219 825 q 203 803 203 825 l 203 600 m 526 317 q 537 413 526 369 q 571 488 547 457 q 633 538 594 519 q 726 556 671 556 q 821 538 782 556 q 885 488 860 519 q 921 412 910 456 q 932 317 932 368 l 932 225 q 921 130 932 174 q 885 54 910 86 q 821 4 860 22 q 726 -14 782 -14 q 633 4 671 -14 q 571 53 594 22 q 537 129 547 85 q 526 225 526 174 l 526 317 m 721 169 q 729 147 721 147 q 738 169 738 147 l 738 372 q 729 394 738 394 q 721 372 721 394 l 721 169 z "},"‰":{"ha":1363,"x_min":8,"x_max":1354,"o":"m 8 747 q 19 844 8 800 q 53 919 29 888 q 115 968 76 950 q 208 986 153 986 q 303 968 264 986 q 367 918 342 950 q 403 842 392 886 q 414 747 414 799 l 414 656 q 403 560 414 604 q 367 485 392 517 q 303 435 342 453 q 208 417 264 417 q 115 435 153 417 q 53 484 76 453 q 19 560 29 515 q 8 656 8 604 l 8 747 m 608 972 l 747 972 l 331 0 l 192 0 l 608 972 m 203 600 q 211 578 203 578 q 219 600 219 578 l 219 803 q 211 825 219 825 q 203 803 203 825 l 203 600 m 526 317 q 537 413 526 369 q 571 488 547 457 q 633 538 594 519 q 726 556 671 556 q 821 538 782 556 q 885 488 860 519 q 921 412 910 456 q 932 317 932 368 l 932 225 q 921 130 932 174 q 885 54 910 86 q 821 4 860 22 q 726 -14 782 -14 q 633 4 671 -14 q 571 53 594 22 q 537 129 547 85 q 526 225 526 174 l 526 317 m 949 317 q 959 413 949 369 q 993 488 969 457 q 1055 538 1017 519 q 1149 556 1093 556 q 1243 538 1204 556 q 1307 488 1282 519 q 1343 412 1332 456 q 1354 317 1354 368 l 1354 225 q 1343 130 1354 174 q 1307 54 1332 86 q 1243 4 1282 22 q 1149 -14 1204 -14 q 1055 4 1093 -14 q 993 53 1017 22 q 959 129 969 85 q 949 225 949 174 l 949 317 m 721 169 q 729 147 721 147 q 738 169 738 147 l 738 372 q 729 394 738 394 q 721 372 721 394 l 721 169 m 1143 169 q 1151 147 1143 147 q 1160 169 1160 147 l 1160 372 q 1151 394 1160 394 q 1143 372 1143 394 l 1143 169 z "},"«":{"ha":835,"x_min":8,"x_max":826,"o":"m 408 110 l 8 283 l 8 450 l 410 626 l 410 404 l 274 369 l 274 367 l 408 332 l 408 110 m 825 110 l 425 283 l 425 450 l 826 626 l 826 404 l 690 369 l 690 367 l 825 332 l 825 110 z "},"»":{"ha":835,"x_min":7,"x_max":825,"o":"m 425 626 l 825 453 l 825 286 l 424 110 l 424 332 l 560 367 l 560 369 l 425 404 l 425 626 m 8 626 l 408 453 l 408 286 l 7 110 l 7 332 l 143 367 l 143 369 l 8 404 l 8 626 z "},"^":{"ha":396,"x_min":10,"x_max":388,"o":"m 207 653 l 207 906 l 190 906 l 190 653 l 10 653 l 92 972 l 306 972 l 388 653 l 207 653 z "},"*":{"ha":542,"x_min":10,"x_max":532,"o":"m 168 749 l 10 772 l 65 944 l 207 869 l 181 1028 l 361 1028 l 335 869 l 476 944 l 532 772 l 374 749 l 488 636 l 343 531 l 271 675 l 200 531 l 54 638 l 168 749 z "},"#":{"ha":635,"x_min":10,"x_max":626,"o":"m 125 300 l 10 300 l 10 453 l 133 453 l 138 521 l 10 521 l 10 674 l 147 674 l 164 974 l 331 974 l 313 674 l 344 674 l 361 974 l 528 974 l 510 674 l 626 674 l 626 521 l 501 521 l 497 453 l 626 453 l 626 300 l 489 300 l 472 0 l 306 0 l 322 300 l 292 300 l 275 0 l 108 0 l 125 300 m 331 453 l 335 521 l 304 521 l 300 453 l 331 453 z "},"[":{"ha":350,"x_min":8,"x_max":342,"o":"m 8 -215 l 8 1000 l 342 1000 l 342 783 l 258 783 l 258 1 l 342 1 l 342 -215 l 8 -215 z "},"]":{"ha":350,"x_min":8,"x_max":342,"o":"m 342 1000 l 342 -215 l 8 -215 l 8 1 l 92 1 l 92 783 l 8 783 l 8 1000 l 342 1000 z "},"(":{"ha":319,"x_min":10,"x_max":313,"o":"m 104 -243 q 33 94 56 -60 q 10 393 10 249 q 33 691 10 538 q 104 1028 56 844 l 313 1000 q 272 669 285 814 q 260 393 260 525 q 263 258 260 326 q 272 115 265 189 q 288 -40 278 42 q 313 -215 299 -122 l 104 -243 z "},")":{"ha":319,"x_min":8,"x_max":311,"o":"m 217 1028 q 288 690 265 844 q 311 392 311 536 q 288 94 311 247 q 217 -243 265 -60 l 8 -215 q 49 115 36 -29 q 61 392 61 260 q 58 527 61 458 q 49 669 56 596 q 33 825 43 743 q 8 1000 22 907 l 217 1028 z "},"{":{"ha":483,"x_min":8,"x_max":474,"o":"m 356 578 q 349 508 356 540 q 328 451 343 475 q 289 415 314 428 q 225 401 264 401 l 225 385 q 289 372 264 385 q 328 335 314 358 q 349 278 343 311 q 356 208 356 246 l 356 93 q 359 32 356 56 q 373 -4 363 8 q 401 -22 383 -17 q 447 -26 419 -26 l 474 -26 l 474 -243 l 360 -243 q 171 -178 236 -243 q 106 14 106 -112 l 106 208 q 88 274 106 251 q 8 296 71 296 l 8 490 q 88 513 71 490 q 106 578 106 535 l 106 771 q 171 963 106 897 q 360 1028 236 1028 l 474 1028 l 474 811 l 447 811 q 401 806 419 811 q 373 789 383 801 q 359 753 363 776 q 356 692 356 729 l 356 578 z "},"}":{"ha":483,"x_min":8,"x_max":474,"o":"m 126 207 q 133 277 126 244 q 153 333 139 310 q 193 370 168 357 q 257 383 218 383 l 257 400 q 193 413 218 400 q 153 450 168 426 q 133 506 139 474 q 126 576 126 539 l 126 692 q 123 753 126 729 q 109 789 119 776 q 81 806 99 801 q 35 811 63 811 l 8 811 l 8 1028 l 122 1028 q 311 962 246 1028 q 376 771 376 897 l 376 576 q 394 511 376 533 q 474 489 411 489 l 474 294 q 394 272 411 294 q 376 207 376 250 l 376 14 q 311 -178 376 -112 q 122 -243 246 -243 l 8 -243 l 8 -26 l 35 -26 q 81 -21 63 -26 q 109 -4 99 -17 q 123 32 119 8 q 126 93 126 56 l 126 207 z "},"@":{"ha":922,"x_min":10,"x_max":914,"o":"m 664 149 q 685 126 664 126 q 706 149 706 126 l 706 564 q 649 681 706 646 q 461 715 593 715 q 273 681 329 715 q 217 564 217 646 l 217 193 q 228 68 217 117 q 270 -8 239 19 q 356 -46 301 -36 q 497 -56 410 -56 l 497 -250 q 276 -226 368 -250 q 124 -149 183 -201 q 38 -13 65 -96 q 10 185 10 69 l 10 600 q 43 725 10 668 q 136 823 76 782 q 279 887 196 864 q 461 910 363 910 q 643 887 560 910 q 787 823 726 864 q 881 725 847 782 q 914 600 914 668 l 914 186 q 897 105 914 142 q 851 42 881 68 q 778 1 821 15 q 686 -14 736 -14 q 606 -3 643 -14 q 541 26 568 7 q 499 70 514 44 q 483 126 483 96 l 483 132 l 467 132 q 432 24 460 63 q 361 -14 404 -14 q 285 42 311 -14 q 258 204 258 97 l 258 532 q 288 634 258 594 q 364 674 318 674 q 429 644 401 674 q 467 564 457 615 l 483 564 l 483 667 l 664 667 l 664 149 m 483 481 q 474 488 481 488 q 467 476 467 488 l 467 224 q 474 210 467 210 q 483 217 479 210 l 483 481 z "},"&":{"ha":575,"x_min":8,"x_max":567,"o":"m 258 585 q 259 574 258 578 q 267 571 260 571 l 275 571 l 275 654 l 525 654 l 525 571 l 567 571 l 567 403 l 525 403 l 525 0 l 354 0 l 354 78 l 338 78 q 291 10 326 33 q 203 -14 256 -14 q 129 1 164 -14 q 67 47 94 15 q 24 127 40 78 q 8 244 8 176 l 8 271 q 13 351 8 314 q 34 417 18 389 q 78 462 50 446 q 151 478 106 478 l 151 494 q 78 511 106 494 q 34 556 50 528 q 13 622 18 585 q 8 703 8 660 l 8 729 q 73 921 8 856 q 263 986 138 986 q 457 919 389 986 q 525 729 525 853 l 525 682 l 275 682 l 275 747 q 267 769 275 769 q 258 747 258 769 l 258 585 m 267 403 q 259 399 260 403 q 258 389 258 394 l 258 225 q 267 203 258 203 q 275 225 275 203 l 275 403 l 267 403 z "},"˜":{"ha":289,"x_min":8,"x_max":279,"o":"m 279 965 q 262 826 279 869 q 210 782 244 782 q 174 790 192 782 q 139 806 156 797 l 133 808 q 106 821 118 815 q 85 826 94 826 q 63 789 63 826 l 63 788 l 8 788 l 8 790 q 27 925 8 878 q 82 972 46 972 q 115 965 97 972 q 149 950 132 958 l 154 947 q 182 935 169 940 q 204 931 194 931 q 226 965 226 931 l 226 968 l 279 968 l 279 965 z "},"+":{"ha":594,"x_min":8,"x_max":586,"o":"m 586 381 l 394 381 l 394 182 l 200 182 l 200 381 l 8 381 l 8 561 l 200 561 l 200 760 l 394 760 l 394 561 l 586 561 l 586 381 z "},"-":{"ha":350,"x_min":8,"x_max":342,"o":"m 342 363 l 8 363 l 8 579 l 342 579 l 342 363 z "},"–":{"ha":685,"x_min":10,"x_max":676,"o":"m 676 363 l 10 363 l 10 579 l 676 579 l 676 363 z "},"—":{"ha":1017,"x_min":8,"x_max":1008,"o":"m 1008 363 l 8 363 l 8 579 l 1008 579 l 1008 363 z "},"_":{"ha":419,"x_min":8,"x_max":411,"o":"m 411 -189 l 8 -189 l 8 0 l 411 0 l 411 -189 z "},"−":{"ha":525,"x_min":8,"x_max":517,"o":"m 517 381 l 8 381 l 8 561 l 517 561 l 517 381 z "},"=":{"ha":553,"x_min":8,"x_max":544,"o":"m 544 533 l 8 533 l 8 714 l 544 714 l 544 533 m 544 228 l 8 228 l 8 408 l 544 408 l 544 228 z "},"•":{"ha":363,"x_min":10,"x_max":353,"o":"m 10 510 q 54 636 10 592 q 182 681 99 681 q 308 636 264 681 q 353 510 353 592 q 308 382 353 426 q 182 338 264 338 q 54 382 99 338 q 10 510 10 426 z "},"¿":{"ha":535,"x_min":8,"x_max":525,"o":"m 156 604 q 275 731 156 731 q 364 698 333 731 q 394 603 394 665 q 364 510 394 542 q 275 478 333 478 q 156 604 156 478 m 525 -35 q 457 -225 525 -158 q 263 -292 389 -292 q 74 -226 139 -292 q 8 -35 8 -161 l 8 -22 q 17 74 8 33 q 39 145 25 114 q 69 200 53 176 q 101 244 85 224 l 103 246 q 146 309 128 278 q 164 389 164 340 l 164 453 l 400 453 l 400 404 q 392 315 400 351 q 373 251 385 278 q 346 204 361 224 q 315 168 331 185 l 315 167 q 275 112 292 140 q 258 25 258 83 l 258 -53 q 267 -75 258 -75 q 275 -53 275 -75 l 275 97 l 525 97 l 525 -35 z "},"¡":{"ha":268,"x_min":8,"x_max":258,"o":"m 14 603 q 133 728 14 728 q 222 695 192 728 q 253 600 253 663 q 222 508 253 540 q 133 476 192 476 q 14 603 14 476 m 8 -140 l 36 453 l 231 453 l 258 -140 l 258 -279 l 8 -279 l 8 -140 z "},"¶":{"ha":794,"x_min":8,"x_max":786,"o":"m 536 -215 l 536 1000 l 786 1000 l 786 -215 l 536 -215 m 258 -215 l 258 240 q 146 251 193 240 q 68 300 99 261 q 23 415 38 339 q 8 621 8 490 q 23 827 8 751 q 68 941 38 903 q 146 990 99 979 q 258 1000 193 1000 l 508 1000 l 508 -215 l 258 -215 z "},"©":{"ha":874,"x_min":10,"x_max":865,"o":"m 10 549 q 108 879 10 772 q 428 986 207 986 q 626 958 543 986 q 763 874 710 929 q 840 738 815 819 q 865 549 865 656 l 865 425 q 842 236 865 318 q 766 99 818 154 q 631 15 714 43 q 431 -14 549 -14 q 235 14 315 -14 q 104 98 154 42 q 32 238 54 154 q 10 433 10 321 l 10 549 m 183 407 q 198 278 183 331 q 243 194 213 226 q 322 147 274 161 q 438 132 369 132 q 553 147 506 132 q 632 194 601 161 q 677 278 663 226 q 692 407 692 331 l 692 567 q 677 695 692 643 q 632 779 663 747 q 553 825 601 811 q 438 839 506 839 q 322 825 369 839 q 243 779 274 811 q 198 695 213 747 q 183 567 183 643 l 183 407 m 429 381 q 438 358 429 358 q 446 381 446 358 l 446 474 l 668 474 l 668 394 q 658 294 668 339 q 621 219 647 250 q 549 170 594 188 q 436 153 504 153 q 325 169 369 153 q 255 217 281 186 q 218 294 229 249 q 207 394 207 339 l 207 576 q 216 677 207 632 q 250 753 225 722 q 320 801 275 785 q 438 818 365 818 q 556 801 511 818 q 626 752 601 783 q 660 676 651 721 q 668 576 668 632 l 668 501 l 446 501 l 446 590 q 438 613 446 613 q 429 590 429 613 l 429 381 z "},"¬":{"ha":675,"x_min":8,"x_max":667,"o":"m 8 972 l 667 972 l 667 0 l 8 0 l 8 972 m 338 543 l 556 903 l 119 903 l 338 543 m 78 115 l 303 486 l 78 857 l 78 115 m 597 115 l 597 857 l 372 486 l 597 115 m 119 69 l 556 69 l 338 429 l 119 69 z "},"®":{"ha":874,"x_min":10,"x_max":865,"o":"m 10 549 q 108 879 10 772 q 428 986 207 986 q 626 958 543 986 q 763 874 710 929 q 840 738 815 819 q 865 549 865 656 l 865 425 q 842 236 865 318 q 766 99 818 154 q 631 15 714 43 q 431 -14 549 -14 q 235 14 315 -14 q 104 98 154 42 q 32 238 54 154 q 10 433 10 321 l 10 549 m 183 407 q 198 278 183 331 q 243 194 213 226 q 322 147 274 161 q 438 132 369 132 q 553 147 506 132 q 632 194 601 161 q 677 278 663 226 q 692 407 692 331 l 692 567 q 677 695 692 643 q 632 779 663 747 q 553 825 601 811 q 438 839 506 839 q 322 825 369 839 q 243 779 274 811 q 198 695 213 747 q 183 567 183 643 l 183 407 m 439 775 q 555 737 514 775 q 596 619 596 699 l 596 615 q 588 551 596 578 q 567 508 579 525 q 540 482 554 490 q 511 474 525 474 l 511 457 q 540 447 525 457 q 567 420 554 438 q 588 376 579 403 q 596 317 596 350 l 596 310 q 597 248 596 276 q 604 192 599 219 l 457 192 q 450 249 451 219 q 449 311 449 278 l 449 386 q 447 398 449 396 q 438 400 444 400 l 432 400 l 432 192 l 286 192 l 286 775 l 439 775 m 432 531 l 438 531 q 447 533 444 531 q 449 543 449 535 l 449 632 q 447 642 449 640 q 438 644 444 644 l 432 644 l 432 531 z "},"™":{"ha":514,"x_min":8,"x_max":506,"o":"m 186 886 l 147 886 l 147 583 l 47 583 l 47 886 l 8 886 l 8 972 l 186 972 l 186 886 m 346 972 l 346 760 l 363 760 l 363 972 l 506 972 l 506 583 l 414 583 l 422 794 l 406 794 l 392 583 l 317 583 l 300 794 l 283 794 l 294 583 l 203 583 l 203 972 l 346 972 z "},"×":{"ha":564,"x_min":8,"x_max":556,"o":"m 556 607 l 419 471 l 556 335 l 418 197 l 282 333 l 146 197 l 8 335 l 144 471 l 8 606 l 146 744 l 282 608 l 418 744 l 556 607 z "},"¦":{"ha":267,"x_min":8,"x_max":258,"o":"m 8 426 l 8 1000 l 258 1000 l 258 426 l 8 426 m 8 -215 l 8 354 l 258 354 l 258 -215 l 8 -215 z "},"†":{"ha":574,"x_min":10,"x_max":565,"o":"m 413 972 l 413 708 l 565 708 l 565 492 l 413 492 l 413 0 l 163 0 l 163 492 l 10 492 l 10 708 l 163 708 l 163 972 l 413 972 z "},"‡":{"ha":574,"x_min":10,"x_max":565,"o":"m 413 972 l 413 750 l 565 750 l 565 533 l 413 533 l 413 439 l 565 439 l 565 222 l 413 222 l 413 0 l 163 0 l 163 222 l 10 222 l 10 439 l 163 439 l 163 533 l 10 533 l 10 750 l 163 750 l 163 972 l 413 972 z "},"›":{"ha":418,"x_min":7,"x_max":408,"o":"m 8 626 l 408 453 l 408 286 l 7 110 l 7 332 l 143 367 l 143 369 l 8 404 l 8 626 z "},"‹":{"ha":418,"x_min":8,"x_max":410,"o":"m 408 110 l 8 283 l 8 450 l 410 626 l 410 404 l 274 369 l 274 367 l 408 332 l 408 110 z "},"€":{"ha":656,"x_min":8,"x_max":647,"o":"m 314 667 l 369 667 l 369 500 l 314 500 l 314 472 l 369 472 l 369 292 l 314 292 l 314 281 q 319 239 314 254 q 331 215 324 224 q 344 205 338 207 q 356 203 351 203 q 367 205 360 203 q 381 215 374 207 q 392 239 388 224 q 397 281 397 254 l 397 472 l 647 472 l 647 244 q 570 53 647 119 q 351 -14 493 -14 q 138 52 211 -14 q 64 244 64 118 l 64 292 l 8 292 l 8 472 l 64 472 l 64 500 l 8 500 l 8 667 l 64 667 l 64 729 q 138 921 64 856 q 351 986 211 986 q 570 919 493 986 q 647 729 647 853 l 647 500 l 397 500 l 397 692 q 392 735 397 719 q 381 758 388 750 q 367 767 374 765 q 356 769 360 769 q 344 767 351 769 q 331 758 338 765 q 319 735 324 750 q 314 692 314 719 l 314 667 z "},"ˆ":{"ha":296,"x_min":8,"x_max":286,"o":"m 8 782 l 64 972 l 231 972 l 286 782 l 158 782 l 151 846 l 143 846 l 136 782 l 8 782 z "},"°":{"ha":288,"x_min":8,"x_max":279,"o":"m 8 883 q 42 978 8 942 q 142 1014 75 1014 q 244 977 210 1014 q 279 883 279 940 l 279 711 q 244 616 279 653 q 142 579 210 579 q 42 616 75 579 q 8 711 8 653 l 8 883 m 135 703 q 144 690 135 690 q 153 703 153 690 l 153 890 q 144 903 153 903 q 135 890 135 903 l 135 703 z "},"'":{"ha":199,"x_min":10,"x_max":190,"o":"m 190 889 l 176 592 l 24 592 l 10 889 l 10 1000 l 190 1000 l 190 889 z "},"\"":{"ha":397,"x_min":10,"x_max":388,"o":"m 190 889 l 176 592 l 24 592 l 10 889 l 10 1000 l 190 1000 l 190 889 m 388 889 l 374 592 l 221 592 l 207 889 l 207 1000 l 388 1000 l 388 889 z "},"‚":{"ha":253,"x_min":8,"x_max":244,"o":"m 22 278 l 244 278 l 175 -158 l 8 -158 l 22 278 z "},"„":{"ha":493,"x_min":8,"x_max":483,"o":"m 22 278 l 244 278 l 175 -158 l 8 -158 l 22 278 m 261 278 l 483 278 l 414 -158 l 247 -158 l 261 278 z "},"~":{"ha":472,"x_min":10,"x_max":463,"o":"m 463 567 q 434 416 463 461 q 346 371 406 371 q 286 379 317 371 q 228 397 256 388 l 218 400 q 174 414 194 408 q 138 419 153 419 q 100 379 100 419 l 100 376 l 10 376 l 10 381 q 132 574 10 574 q 188 567 158 574 q 244 550 217 560 l 254 547 q 299 535 278 540 q 338 529 321 529 q 375 567 375 529 l 375 569 l 463 569 l 463 567 z "},"´":{"ha":238,"x_min":8,"x_max":229,"o":"m 8 782 l 49 972 l 229 972 l 161 782 l 8 782 z "},"`":{"ha":238,"x_min":8,"x_max":229,"o":"m 76 782 l 8 972 l 189 972 l 229 782 l 76 782 z "},"¨":{"ha":419,"x_min":8,"x_max":411,"o":"m 8 878 q 28 952 8 925 q 106 979 49 979 q 184 951 163 979 q 206 876 206 924 q 185 802 206 829 q 107 775 164 775 q 29 802 50 775 q 8 878 8 829 m 214 878 q 234 952 214 925 q 311 979 254 979 q 390 951 368 979 q 411 876 411 924 q 390 802 411 829 q 313 775 369 775 q 235 802 256 775 q 214 878 214 829 z "},"˚":{"ha":256,"x_min":8,"x_max":247,"o":"m 8 878 q 40 955 8 931 q 126 979 72 979 q 215 954 182 979 q 247 878 247 929 q 215 800 247 825 q 128 775 183 775 q 40 800 72 775 q 8 878 8 825 m 85 878 q 128 843 85 843 q 171 878 171 843 q 128 911 171 911 q 85 878 85 911 z "},"ˇ":{"ha":296,"x_min":8,"x_max":286,"o":"m 286 972 l 231 782 l 64 782 l 8 972 l 136 972 l 143 908 l 151 908 l 158 972 l 286 972 z "},"˘":{"ha":356,"x_min":8,"x_max":347,"o":"m 147 972 q 178 921 147 921 q 208 972 208 921 l 347 972 q 304 825 347 868 q 178 782 261 782 q 51 825 94 782 q 8 972 8 868 l 147 972 z "},"˝":{"ha":353,"x_min":8,"x_max":344,"o":"m 8 782 l 49 972 l 188 972 l 121 782 l 8 782 m 165 782 l 206 972 l 344 972 l 278 782 l 165 782 z "},"˙":{"ha":214,"x_min":8,"x_max":206,"o":"m 8 878 q 28 952 8 925 q 106 979 49 979 q 184 951 163 979 q 206 876 206 924 q 185 802 206 829 q 107 775 164 775 q 29 802 50 775 q 8 878 8 829 z "},"˛":{"ha":242,"x_min":8,"x_max":232,"o":"m 232 -3 l 232 -12 q 182 -35 200 -12 q 164 -83 164 -58 q 176 -117 164 -103 q 213 -131 188 -131 q 222 -131 217 -131 q 232 -129 226 -131 l 232 -247 q 190 -256 210 -254 q 153 -258 171 -258 q 45 -225 82 -258 q 8 -147 8 -192 q 22 -97 8 -122 q 63 -50 35 -71 q 133 -16 90 -29 q 232 -3 175 -3 z "},"¸":{"ha":286,"x_min":10,"x_max":276,"o":"m 60 0 l 151 0 l 144 -69 q 244 -97 211 -69 q 276 -161 276 -125 q 237 -233 276 -200 q 115 -267 197 -267 q 66 -264 93 -267 q 10 -256 39 -261 l 10 -168 q 49 -172 31 -172 q 91 -165 74 -172 q 108 -147 108 -158 q 89 -131 108 -136 q 38 -125 69 -125 l 60 0 z "},"B":{"ha":544,"x_min":8,"x_max":539,"o":"m 264 972 q 457 910 389 972 q 525 733 525 849 l 525 726 q 512 631 525 672 q 478 561 499 589 q 432 519 457 533 q 383 506 407 506 l 383 489 q 433 473 406 489 q 483 426 460 457 q 523 353 507 396 q 539 257 539 311 l 539 239 q 466 63 539 126 q 264 0 393 0 l 8 0 l 8 972 l 264 972 m 258 606 l 261 606 q 274 609 272 606 q 275 628 275 613 l 275 733 q 274 752 275 749 q 261 756 272 756 l 258 756 l 258 606 m 258 217 l 261 217 q 274 220 272 217 q 275 239 275 224 l 275 367 q 274 385 275 382 q 261 389 272 389 l 258 389 l 258 217 z "},"C":{"ha":533,"x_min":8,"x_max":525,"o":"m 258 225 q 267 203 258 203 q 275 225 275 203 l 275 472 l 525 472 l 525 244 q 457 53 525 119 q 263 -14 389 -14 q 74 52 139 -14 q 8 244 8 118 l 8 729 q 74 921 8 856 q 263 986 139 986 q 457 919 389 986 q 525 729 525 853 l 525 500 l 275 500 l 275 747 q 267 769 275 769 q 258 747 258 769 l 258 225 z "},"A":{"ha":525,"x_min":4,"x_max":521,"o":"m 460 972 l 521 0 l 271 0 l 271 200 l 254 200 l 254 0 l 4 0 l 71 972 l 460 972 m 271 417 l 271 536 l 254 536 l 254 417 l 271 417 z "},"±":{"ha":525,"x_min":8,"x_max":517,"o":"m 517 381 l 360 381 l 360 238 l 165 238 l 165 381 l 8 381 l 8 561 l 165 561 l 165 704 l 360 704 l 360 561 l 517 561 l 517 381 m 517 0 l 8 0 l 8 181 l 517 181 l 517 0 z "},"ı":{"ha":256,"x_min":10,"x_max":246,"o":"m 246 708 l 246 0 l 10 0 l 10 708 l 246 708 z "},"·":{"ha":257,"x_min":8,"x_max":247,"o":"m 8 519 q 128 644 8 644 q 217 612 186 644 q 247 517 247 579 q 217 425 247 457 q 128 393 186 393 q 8 519 8 393 z "},"ª":{"ha":311,"x_min":10,"x_max":303,"o":"m 161 865 q 156 879 161 879 q 149 865 149 879 l 149 810 l 10 810 l 10 857 q 48 962 10 924 q 154 1000 86 1000 q 263 962 224 1000 q 303 857 303 924 l 303 567 l 161 567 l 161 599 l 149 599 q 75 558 118 558 q 24 582 39 558 q 10 643 10 606 l 10 711 q 35 772 10 747 q 96 796 60 796 l 161 796 l 161 865 m 161 728 l 154 728 q 149 721 149 728 l 149 675 q 154 668 149 668 q 161 672 160 668 l 161 728 z "},"£":{"ha":547,"x_min":8,"x_max":539,"o":"m 286 453 l 497 453 l 497 278 l 281 278 q 263 217 274 246 l 539 217 l 539 0 l 8 0 l 8 217 q 28 248 21 233 q 42 278 36 263 l 8 278 l 8 453 l 50 453 l 50 815 q 112 943 50 900 q 290 986 174 986 q 474 919 410 986 q 539 729 539 853 l 539 500 l 303 500 l 303 747 q 294 769 303 769 q 286 757 286 769 l 286 453 z "},"º":{"ha":310,"x_min":8,"x_max":301,"o":"m 8 857 q 44 960 8 919 q 153 1000 81 1000 q 264 960 226 1000 q 301 857 301 919 l 301 701 q 264 599 301 639 q 153 558 226 558 q 44 599 81 558 q 8 701 8 639 l 8 857 m 147 693 q 156 681 147 681 q 163 693 163 681 l 163 865 q 156 878 163 878 q 147 865 147 878 l 147 693 z "},"¹":{"ha":190,"x_min":10,"x_max":182,"o":"m 47 572 l 47 858 l 42 868 l 10 868 l 10 986 l 182 986 l 182 572 l 47 572 z "},"²":{"ha":303,"x_min":8,"x_max":294,"o":"m 8 875 q 18 922 8 900 q 47 962 28 944 q 92 990 65 979 q 154 1000 119 1000 q 258 963 222 1000 q 294 875 294 925 l 294 854 q 284 788 294 813 q 258 749 274 763 q 225 729 243 735 q 192 719 207 724 l 189 719 q 165 712 175 717 q 156 696 156 707 l 156 692 l 294 692 l 294 572 l 14 572 l 14 661 q 28 727 14 704 q 79 765 43 750 l 88 769 q 127 788 113 781 q 149 803 142 796 q 158 819 157 811 q 160 839 160 826 l 160 860 q 158 877 160 874 q 151 881 156 881 q 145 877 147 881 q 143 860 143 874 l 143 819 l 8 819 l 8 875 z "},"³":{"ha":301,"x_min":8,"x_max":293,"o":"m 160 874 q 151 883 160 883 q 142 874 142 883 l 142 851 l 8 851 l 8 890 q 42 973 8 946 q 153 1000 76 1000 q 260 974 228 1000 q 293 889 293 947 l 293 883 q 270 815 293 835 q 221 793 247 794 l 221 782 q 270 758 247 782 q 293 686 293 735 l 293 681 q 260 598 293 624 q 153 572 228 572 q 43 599 78 572 q 8 682 8 626 l 8 721 l 142 721 l 142 699 q 151 689 142 689 q 160 699 160 689 l 160 707 q 154 738 160 731 q 121 746 149 746 l 106 746 l 106 826 l 121 826 q 154 834 149 826 q 160 865 160 842 l 160 874 z "},"¼":{"ha":650,"x_min":10,"x_max":643,"o":"m 269 0 l 135 0 l 281 1000 l 415 1000 l 269 0 m 47 572 l 47 858 l 42 868 l 10 868 l 10 986 l 182 986 l 182 572 l 47 572 m 643 414 l 643 0 l 508 0 l 508 107 l 367 107 l 367 414 l 501 414 l 501 226 l 508 226 l 508 414 l 643 414 z "},"¾":{"ha":733,"x_min":8,"x_max":726,"o":"m 353 0 l 218 0 l 364 1000 l 499 1000 l 353 0 m 160 874 q 151 883 160 883 q 142 874 142 883 l 142 851 l 8 851 l 8 890 q 42 973 8 946 q 153 1000 76 1000 q 260 974 228 1000 q 293 889 293 947 l 293 883 q 270 815 293 835 q 221 793 247 794 l 221 782 q 270 758 247 782 q 293 686 293 735 l 293 681 q 260 598 293 624 q 153 572 228 572 q 43 599 78 572 q 8 682 8 626 l 8 721 l 142 721 l 142 699 q 151 689 142 689 q 160 699 160 689 l 160 707 q 154 738 160 731 q 121 746 149 746 l 106 746 l 106 826 l 121 826 q 154 834 149 826 q 160 865 160 842 l 160 874 m 726 414 l 726 0 l 592 0 l 592 107 l 450 107 l 450 414 l 585 414 l 585 226 l 592 226 l 592 414 l 726 414 z "},"½":{"ha":647,"x_min":10,"x_max":639,"o":"m 269 0 l 135 0 l 281 1000 l 415 1000 l 269 0 m 47 572 l 47 858 l 42 868 l 10 868 l 10 986 l 182 986 l 182 572 l 47 572 m 353 303 q 363 350 353 328 q 391 390 372 372 q 437 417 410 407 q 499 428 464 428 q 603 390 567 428 q 639 303 639 353 l 639 282 q 628 215 639 240 q 603 176 618 190 q 569 157 588 163 q 536 147 551 151 l 533 147 q 510 140 519 144 q 500 124 500 135 l 500 119 l 639 119 l 639 0 l 358 0 l 358 89 q 373 155 358 132 q 424 193 388 178 l 432 197 q 472 216 457 208 q 494 231 486 224 q 503 247 501 239 q 504 267 504 254 l 504 288 q 502 305 504 301 q 496 308 500 308 q 490 305 492 308 q 488 288 488 301 l 488 247 l 353 247 l 353 303 z "},"¯":{"ha":322,"x_min":8,"x_max":314,"o":"m 314 788 l 8 788 l 8 968 l 314 968 l 314 788 z "},"E":{"ha":378,"x_min":8,"x_max":369,"o":"m 258 756 l 258 621 l 369 621 l 369 404 l 258 404 l 258 217 l 369 217 l 369 0 l 8 0 l 8 972 l 369 972 l 369 756 l 258 756 z "},";":{"ha":256,"x_min":-12,"x_max":247,"o":"m 8 592 q 128 717 8 717 q 217 684 186 717 q 247 589 247 651 q 217 497 247 529 q 128 465 186 465 q 8 592 8 465 m 31 224 l 247 224 l 135 -133 l -12 -133 l 31 224 z "},"ƒ":{"ha":433,"x_min":0,"x_max":433,"o":"m 99 750 q 114 869 99 821 q 157 946 129 917 q 224 988 185 975 q 313 1000 264 1000 q 433 988 369 1000 l 433 786 q 415 789 424 788 q 396 790 406 790 q 353 779 372 790 q 335 736 335 768 l 335 708 l 433 708 l 433 506 l 335 506 l 335 -42 q 319 -162 335 -114 q 276 -239 304 -210 q 209 -280 249 -268 q 121 -292 169 -292 q 63 -289 93 -292 q 0 -281 33 -286 l 0 -78 q 39 -82 19 -82 q 81 -71 63 -82 q 99 -29 99 -60 l 99 506 l 43 506 l 43 708 l 99 708 l 99 750 z "},"⁴":{"ha":293,"x_min":8,"x_max":285,"o":"m 285 986 l 285 572 l 150 572 l 150 679 l 8 679 l 8 986 l 143 986 l 143 799 l 150 799 l 150 986 l 285 986 z "},"μ":{"ha":675,"x_min":8,"x_max":667,"o":"m 8 972 l 667 972 l 667 0 l 8 0 l 8 972 m 338 543 l 556 903 l 119 903 l 338 543 m 78 115 l 303 486 l 78 857 l 78 115 m 597 115 l 597 857 l 372 486 l 597 115 m 119 69 l 556 69 l 338 429 l 119 69 z "},"ð":{"ha":506,"x_min":8,"x_max":497,"o":"m 8 492 q 24 587 8 544 q 63 660 39 629 q 117 706 88 690 q 176 722 147 722 q 236 701 208 722 q 279 632 264 679 l 294 636 q 263 760 283 707 q 207 853 243 813 l 108 786 l 76 831 l 164 890 q 38 949 114 926 l 58 1000 q 240 940 164 981 l 335 1004 l 365 958 l 293 910 q 497 483 497 772 l 497 225 q 481 130 497 174 q 433 54 465 86 q 353 4 401 22 q 243 -14 306 -14 q 67 44 126 -14 q 8 192 8 101 l 8 492 m 244 211 q 253 189 244 189 q 261 211 261 189 l 261 497 q 253 519 261 519 q 244 497 244 519 l 244 211 z "},"ß":{"ha":544,"x_min":8,"x_max":539,"o":"m 8 726 q 64 907 8 842 q 244 972 119 972 l 264 972 q 458 910 390 972 q 525 733 525 849 l 525 726 q 512 631 525 672 q 478 561 499 589 q 432 519 457 533 q 383 506 407 506 l 383 489 q 433 473 406 489 q 483 426 460 457 q 523 353 507 396 q 539 257 539 311 l 539 239 q 474 63 539 126 q 281 0 408 0 l 275 0 l 275 217 l 279 217 q 290 228 289 217 q 292 260 292 239 l 292 346 q 290 375 292 361 q 279 389 289 389 l 275 389 l 275 606 l 279 606 q 290 617 289 606 q 292 649 292 629 l 292 728 q 285 751 292 747 q 275 756 279 756 l 272 756 q 263 751 268 756 q 258 728 258 747 l 258 0 l 8 0 l 8 726 z "},"¤":{"ha":675,"x_min":8,"x_max":667,"o":"m 8 972 l 667 972 l 667 0 l 8 0 l 8 972 m 338 543 l 556 903 l 119 903 l 338 543 m 78 115 l 303 486 l 78 857 l 78 115 m 597 115 l 597 857 l 372 486 l 597 115 m 119 69 l 556 69 l 338 429 l 119 69 z "},"À":{"ha":525,"x_min":4,"x_max":521,"o":"m 460 972 l 521 0 l 271 0 l 271 200 l 254 200 l 254 0 l 4 0 l 71 972 l 460 972 m 271 417 l 271 536 l 254 536 l 254 417 l 271 417 m 192 1028 l 124 1218 l 304 1218 l 344 1028 l 192 1028 z "},"Á":{"ha":525,"x_min":4,"x_max":521,"o":"m 460 972 l 521 0 l 271 0 l 271 200 l 254 200 l 254 0 l 4 0 l 71 972 l 460 972 m 271 417 l 271 536 l 254 536 l 254 417 l 271 417 m 181 1028 l 221 1218 l 401 1218 l 333 1028 l 181 1028 z "},"Â":{"ha":525,"x_min":4,"x_max":521,"o":"m 460 972 l 521 0 l 271 0 l 271 200 l 254 200 l 254 0 l 4 0 l 71 972 l 460 972 m 271 417 l 271 536 l 254 536 l 254 417 l 271 417 m 124 1028 l 179 1218 l 346 1218 l 401 1028 l 274 1028 l 267 1092 l 258 1092 l 251 1028 l 124 1028 z "},"Ã":{"ha":525,"x_min":4,"x_max":521,"o":"m 460 972 l 521 0 l 271 0 l 271 200 l 254 200 l 254 0 l 4 0 l 71 972 l 460 972 m 271 417 l 271 536 l 254 536 l 254 417 l 271 417 m 397 1211 q 380 1072 397 1115 q 328 1028 363 1028 q 292 1035 310 1028 q 257 1051 274 1043 l 251 1054 q 224 1067 236 1061 q 203 1072 213 1072 q 181 1035 181 1072 l 181 1033 l 126 1033 l 126 1036 q 145 1171 126 1124 q 200 1218 164 1218 q 233 1211 215 1218 q 267 1196 250 1204 l 272 1193 q 300 1181 288 1186 q 322 1176 313 1176 q 344 1211 344 1176 l 344 1214 l 397 1214 l 397 1211 z "},"Ä":{"ha":525,"x_min":4,"x_max":521,"o":"m 460 972 l 521 0 l 271 0 l 271 200 l 254 200 l 254 0 l 4 0 l 71 972 l 460 972 m 271 417 l 271 536 l 254 536 l 254 417 l 271 417 m 61 1124 q 81 1198 61 1171 q 158 1225 101 1225 q 237 1197 215 1225 q 258 1122 258 1169 q 238 1048 258 1075 q 160 1021 217 1021 q 82 1048 103 1021 q 61 1124 61 1075 m 267 1124 q 287 1198 267 1171 q 364 1225 307 1225 q 442 1197 421 1225 q 464 1122 464 1169 q 443 1048 464 1075 q 365 1021 422 1021 q 288 1048 308 1021 q 267 1124 267 1075 z "},"Å":{"ha":525,"x_min":4,"x_max":521,"o":"m 460 972 l 521 0 l 271 0 l 271 200 l 254 200 l 254 0 l 4 0 l 71 972 l 460 972 m 271 417 l 271 536 l 254 536 l 254 417 l 271 417 m 143 1124 q 175 1201 143 1176 q 261 1225 207 1225 q 349 1200 317 1225 q 382 1124 382 1175 q 350 1046 382 1071 q 263 1021 318 1021 q 175 1046 207 1021 q 143 1124 143 1071 m 219 1124 q 263 1089 219 1089 q 306 1124 306 1089 q 263 1157 306 1157 q 219 1124 219 1157 z "},"Æ":{"ha":640,"x_min":4,"x_max":632,"o":"m 521 756 l 521 621 l 632 621 l 632 404 l 521 404 l 521 217 l 632 217 l 632 0 l 271 0 l 271 200 l 254 200 l 254 0 l 4 0 l 71 972 l 632 972 l 632 756 l 521 756 m 271 417 l 271 536 l 254 536 l 254 417 l 271 417 z "},"Ç":{"ha":533,"x_min":8,"x_max":525,"o":"m 258 225 q 267 203 258 203 q 275 225 275 203 l 275 472 l 525 472 l 525 244 q 457 53 525 119 q 263 -14 389 -14 q 74 52 139 -14 q 8 244 8 118 l 8 729 q 74 921 8 856 q 263 986 139 986 q 457 919 389 986 q 525 729 525 853 l 525 500 l 275 500 l 275 747 q 267 769 275 769 q 258 747 258 769 l 258 225 m 224 0 l 315 0 l 308 -69 q 408 -97 375 -69 q 440 -161 440 -125 q 401 -233 440 -200 q 279 -267 361 -267 q 230 -264 257 -267 q 174 -256 203 -261 l 174 -168 q 213 -172 194 -172 q 255 -165 238 -172 q 272 -147 272 -158 q 253 -131 272 -136 q 201 -125 233 -125 l 224 0 z "},"Ð":{"ha":564,"x_min":10,"x_max":556,"o":"m 294 972 q 488 912 419 972 q 556 729 556 851 l 556 243 q 488 60 556 119 q 294 0 419 0 l 39 0 l 39 403 l 10 403 l 10 564 l 39 564 l 39 972 l 294 972 m 290 564 l 301 564 l 301 403 l 290 403 l 290 217 l 293 217 q 304 220 303 217 q 306 239 306 224 l 306 733 q 304 752 306 749 q 293 756 303 756 l 290 756 l 290 564 z "},"Đ":{"ha":564,"x_min":10,"x_max":556,"o":"m 294 972 q 488 912 419 972 q 556 729 556 851 l 556 243 q 488 60 556 119 q 294 0 419 0 l 39 0 l 39 403 l 10 403 l 10 564 l 39 564 l 39 972 l 294 972 m 290 564 l 301 564 l 301 403 l 290 403 l 290 217 l 293 217 q 304 220 303 217 q 306 239 306 224 l 306 733 q 304 752 306 749 q 293 756 303 756 l 290 756 l 290 564 z "},"È":{"ha":378,"x_min":8,"x_max":369,"o":"m 258 756 l 258 621 l 369 621 l 369 404 l 258 404 l 258 217 l 369 217 l 369 0 l 8 0 l 8 972 l 369 972 l 369 756 l 258 756 m 118 1028 l 50 1218 l 231 1218 l 271 1028 l 118 1028 z "},"É":{"ha":378,"x_min":8,"x_max":369,"o":"m 258 756 l 258 621 l 369 621 l 369 404 l 258 404 l 258 217 l 369 217 l 369 0 l 8 0 l 8 972 l 369 972 l 369 756 l 258 756 m 107 1028 l 147 1218 l 328 1218 l 260 1028 l 107 1028 z "},"Ê":{"ha":378,"x_min":8,"x_max":369,"o":"m 258 756 l 258 621 l 369 621 l 369 404 l 258 404 l 258 217 l 369 217 l 369 0 l 8 0 l 8 972 l 369 972 l 369 756 l 258 756 m 50 1028 l 106 1218 l 272 1218 l 328 1028 l 200 1028 l 193 1092 l 185 1092 l 178 1028 l 50 1028 z "},"Ë":{"ha":378,"x_min":-12,"x_max":390,"o":"m 258 756 l 258 621 l 369 621 l 369 404 l 258 404 l 258 217 l 369 217 l 369 0 l 8 0 l 8 972 l 369 972 l 369 756 l 258 756 m -12 1124 q 8 1198 -12 1171 q 85 1225 28 1225 q 163 1197 142 1225 q 185 1122 185 1169 q 164 1048 185 1075 q 86 1021 143 1021 q 8 1048 29 1021 q -12 1124 -12 1075 m 193 1124 q 213 1198 193 1171 q 290 1225 233 1225 q 369 1197 347 1225 q 390 1122 390 1169 q 369 1048 390 1075 q 292 1021 349 1021 q 214 1048 235 1021 q 193 1124 193 1075 z "},"Ì":{"ha":267,"x_min":-6,"x_max":258,"o":"m 258 972 l 258 0 l 8 0 l 8 972 l 258 972 m 63 1028 l -6 1218 l 175 1218 l 215 1028 l 63 1028 z "},"Í":{"ha":267,"x_min":8,"x_max":272,"o":"m 258 972 l 258 0 l 8 0 l 8 972 l 258 972 m 51 1028 l 92 1218 l 272 1218 l 204 1028 l 51 1028 z "},"Î":{"ha":267,"x_min":-6,"x_max":272,"o":"m 258 972 l 258 0 l 8 0 l 8 972 l 258 972 m -6 1028 l 50 1218 l 217 1218 l 272 1028 l 144 1028 l 138 1092 l 129 1092 l 122 1028 l -6 1028 z "},"Ï":{"ha":267,"x_min":-68,"x_max":335,"o":"m 258 972 l 258 0 l 8 0 l 8 972 l 258 972 m -68 1124 q -48 1198 -68 1171 q 29 1225 -28 1225 q 108 1197 86 1225 q 129 1122 129 1169 q 108 1048 129 1075 q 31 1021 88 1021 q -47 1048 -26 1021 q -68 1124 -68 1075 m 138 1124 q 158 1198 138 1171 q 235 1225 178 1225 q 313 1197 292 1225 q 335 1122 335 1169 q 314 1048 335 1075 q 236 1021 293 1021 q 158 1048 179 1021 q 138 1124 138 1075 z "},"Ł":{"ha":374,"x_min":-75,"x_max":369,"o":"m 258 972 l 258 217 l 369 217 l 369 0 l 8 0 l 8 972 l 258 972 m 340 515 l -19 386 l -75 538 l 285 667 l 340 515 z "},"Ñ":{"ha":556,"x_min":8,"x_max":547,"o":"m 547 972 l 547 0 l 279 0 l 215 528 l 201 528 l 258 0 l 8 0 l 8 972 l 276 972 l 346 439 l 360 439 l 297 972 l 547 972 m 411 1211 q 394 1072 411 1115 q 342 1028 376 1028 q 306 1035 324 1028 q 271 1051 288 1043 l 265 1054 q 238 1067 250 1061 q 217 1072 226 1072 q 194 1035 194 1072 l 194 1033 l 140 1033 l 140 1036 q 159 1171 140 1124 q 214 1218 178 1218 q 247 1211 229 1218 q 281 1196 264 1204 l 286 1193 q 314 1181 301 1186 q 336 1176 326 1176 q 358 1211 358 1176 l 358 1214 l 411 1214 l 411 1211 z "},"Ò":{"ha":533,"x_min":8,"x_max":525,"o":"m 8 729 q 74 921 8 856 q 263 986 139 986 q 457 919 389 986 q 525 729 525 853 l 525 244 q 457 53 525 119 q 263 -14 389 -14 q 74 52 139 -14 q 8 244 8 118 l 8 729 m 258 225 q 267 203 258 203 q 275 225 275 203 l 275 747 q 267 769 275 769 q 258 747 258 769 l 258 225 m 196 1028 l 128 1218 l 308 1218 l 349 1028 l 196 1028 z "},"Ó":{"ha":533,"x_min":8,"x_max":525,"o":"m 8 729 q 74 921 8 856 q 263 986 139 986 q 457 919 389 986 q 525 729 525 853 l 525 244 q 457 53 525 119 q 263 -14 389 -14 q 74 52 139 -14 q 8 244 8 118 l 8 729 m 258 225 q 267 203 258 203 q 275 225 275 203 l 275 747 q 267 769 275 769 q 258 747 258 769 l 258 225 m 185 1028 l 225 1218 l 406 1218 l 338 1028 l 185 1028 z "},"Ô":{"ha":533,"x_min":8,"x_max":525,"o":"m 8 729 q 74 921 8 856 q 263 986 139 986 q 457 919 389 986 q 525 729 525 853 l 525 244 q 457 53 525 119 q 263 -14 389 -14 q 74 52 139 -14 q 8 244 8 118 l 8 729 m 258 225 q 267 203 258 203 q 275 225 275 203 l 275 747 q 267 769 275 769 q 258 747 258 769 l 258 225 m 128 1028 l 183 1218 l 350 1218 l 406 1028 l 278 1028 l 271 1092 l 263 1092 l 256 1028 l 128 1028 z "},"Õ":{"ha":533,"x_min":8,"x_max":525,"o":"m 8 729 q 74 921 8 856 q 263 986 139 986 q 457 919 389 986 q 525 729 525 853 l 525 244 q 457 53 525 119 q 263 -14 389 -14 q 74 52 139 -14 q 8 244 8 118 l 8 729 m 258 225 q 267 203 258 203 q 275 225 275 203 l 275 747 q 267 769 275 769 q 258 747 258 769 l 258 225 m 401 1211 q 384 1072 401 1115 q 332 1028 367 1028 q 296 1035 314 1028 q 261 1051 278 1043 l 256 1054 q 228 1067 240 1061 q 207 1072 217 1072 q 185 1035 185 1072 l 185 1033 l 131 1033 l 131 1036 q 149 1171 131 1124 q 204 1218 168 1218 q 237 1211 219 1218 q 271 1196 254 1204 l 276 1193 q 304 1181 292 1186 q 326 1176 317 1176 q 349 1211 349 1176 l 349 1214 l 401 1214 l 401 1211 z "},"Ö":{"ha":533,"x_min":8,"x_max":525,"o":"m 8 729 q 74 921 8 856 q 263 986 139 986 q 457 919 389 986 q 525 729 525 853 l 525 244 q 457 53 525 119 q 263 -14 389 -14 q 74 52 139 -14 q 8 244 8 118 l 8 729 m 258 225 q 267 203 258 203 q 275 225 275 203 l 275 747 q 267 769 275 769 q 258 747 258 769 l 258 225 m 65 1124 q 85 1198 65 1171 q 163 1225 106 1225 q 241 1197 219 1225 q 263 1122 263 1169 q 242 1048 263 1075 q 164 1021 221 1021 q 86 1048 107 1021 q 65 1124 65 1075 m 271 1124 q 291 1198 271 1171 q 368 1225 311 1225 q 447 1197 425 1225 q 468 1122 468 1169 q 447 1048 468 1075 q 369 1021 426 1021 q 292 1048 313 1021 q 271 1124 271 1075 z "},"Ø":{"ha":533,"x_min":8,"x_max":525,"o":"m 8 729 q 74 921 8 856 q 263 986 139 986 q 450 925 382 986 l 479 986 l 525 964 l 486 883 q 525 729 525 821 l 525 244 q 457 53 525 119 q 263 -14 389 -14 q 82 44 147 -14 l 54 -14 l 8 8 l 47 86 q 8 244 8 147 l 8 729 m 258 526 l 275 561 l 275 747 q 267 769 275 769 q 258 747 258 769 l 258 526 m 258 225 q 267 203 258 203 q 275 225 275 203 l 275 444 l 258 410 l 258 225 z "},"Œ":{"ha":644,"x_min":8,"x_max":636,"o":"m 525 756 l 525 621 l 636 621 l 636 404 l 525 404 l 525 217 l 636 217 l 636 0 l 263 0 q 74 66 139 0 q 8 258 8 132 l 8 715 q 74 907 8 842 q 263 972 139 972 l 636 972 l 636 756 l 525 756 m 258 239 q 271 217 258 217 l 275 217 l 275 756 l 271 756 q 258 733 258 756 l 258 239 z "},"Š":{"ha":533,"x_min":8,"x_max":525,"o":"m 275 639 l 275 747 q 267 769 275 769 q 258 747 258 769 l 258 669 q 260 644 258 654 q 273 623 263 633 q 306 599 283 613 q 368 563 328 585 l 406 542 q 465 499 442 522 q 501 443 488 475 q 519 367 514 411 q 525 263 525 324 l 525 244 q 457 53 525 119 q 263 -14 389 -14 q 73 52 138 -14 q 8 244 8 118 l 8 333 l 258 333 l 258 225 q 267 203 258 203 q 275 224 275 203 l 275 306 q 273 331 275 321 q 262 350 271 340 q 233 372 253 360 q 176 406 213 385 l 132 431 q 72 476 96 451 q 33 533 47 500 q 14 611 19 567 q 8 717 8 656 l 8 729 q 74 921 8 856 q 263 986 139 986 q 457 919 389 986 q 525 729 525 853 l 525 639 l 275 639 m 406 1219 l 350 1029 l 183 1029 l 128 1219 l 256 1219 l 263 1156 l 271 1156 l 278 1219 l 406 1219 z "},"Ù":{"ha":533,"x_min":8,"x_max":525,"o":"m 258 972 l 258 225 q 267 203 258 203 q 275 225 275 203 l 275 972 l 525 972 l 525 244 q 457 53 525 119 q 263 -14 389 -14 q 73 52 138 -14 q 8 244 8 118 l 8 972 l 258 972 m 196 1028 l 128 1218 l 308 1218 l 349 1028 l 196 1028 z "},"Ú":{"ha":533,"x_min":8,"x_max":525,"o":"m 258 972 l 258 225 q 267 203 258 203 q 275 225 275 203 l 275 972 l 525 972 l 525 244 q 457 53 525 119 q 263 -14 389 -14 q 73 52 138 -14 q 8 244 8 118 l 8 972 l 258 972 m 185 1028 l 225 1218 l 406 1218 l 338 1028 l 185 1028 z "},"Û":{"ha":533,"x_min":8,"x_max":525,"o":"m 258 972 l 258 225 q 267 203 258 203 q 275 225 275 203 l 275 972 l 525 972 l 525 244 q 457 53 525 119 q 263 -14 389 -14 q 73 52 138 -14 q 8 244 8 118 l 8 972 l 258 972 m 128 1028 l 183 1218 l 350 1218 l 406 1028 l 278 1028 l 271 1092 l 263 1092 l 256 1028 l 128 1028 z "},"Ü":{"ha":533,"x_min":8,"x_max":525,"o":"m 258 972 l 258 225 q 267 203 258 203 q 275 225 275 203 l 275 972 l 525 972 l 525 244 q 457 53 525 119 q 263 -14 389 -14 q 73 52 138 -14 q 8 244 8 118 l 8 972 l 258 972 m 65 1124 q 85 1198 65 1171 q 163 1225 106 1225 q 241 1197 219 1225 q 263 1122 263 1169 q 242 1048 263 1075 q 164 1021 221 1021 q 86 1048 107 1021 q 65 1124 65 1075 m 271 1124 q 291 1198 271 1171 q 368 1225 311 1225 q 447 1197 425 1225 q 468 1122 468 1169 q 447 1048 468 1075 q 369 1021 426 1021 q 292 1048 313 1021 q 271 1124 271 1075 z "},"Ÿ":{"ha":525,"x_min":4,"x_max":521,"o":"m 254 972 l 254 607 l 271 607 l 271 972 l 521 972 l 385 264 l 385 0 l 135 0 l 135 264 l 4 972 l 254 972 m 61 1124 q 81 1198 61 1171 q 158 1225 101 1225 q 237 1197 215 1225 q 258 1122 258 1169 q 238 1048 258 1075 q 160 1021 217 1021 q 82 1048 103 1021 q 61 1124 61 1075 m 267 1124 q 287 1198 267 1171 q 364 1225 307 1225 q 442 1197 421 1225 q 464 1122 464 1169 q 443 1048 464 1075 q 365 1021 422 1021 q 288 1048 308 1021 q 267 1124 267 1075 z "},"Ý":{"ha":525,"x_min":4,"x_max":521,"o":"m 254 972 l 254 607 l 271 607 l 271 972 l 521 972 l 385 264 l 385 0 l 135 0 l 135 264 l 4 972 l 254 972 m 181 1028 l 221 1218 l 401 1218 l 333 1028 l 181 1028 z "},"Ž":{"ha":469,"x_min":4,"x_max":465,"o":"m 450 972 l 450 754 l 260 229 l 269 217 l 465 217 l 465 0 l 4 0 l 4 217 l 196 743 l 185 756 l 18 756 l 18 972 l 450 972 m 374 1219 l 318 1029 l 151 1029 l 96 1219 l 224 1219 l 231 1156 l 239 1156 l 246 1219 l 374 1219 z "},"ﬁ":{"ha":646,"x_min":0,"x_max":644,"o":"m 56 750 q 71 869 56 821 q 114 946 86 917 q 181 988 142 975 q 269 1000 221 1000 q 390 988 326 1000 l 390 786 q 372 789 381 788 q 353 790 363 790 q 310 779 329 790 q 292 736 292 768 l 292 708 l 390 708 l 390 506 l 292 506 l 292 0 l 56 0 l 56 506 l 0 506 l 0 708 l 56 708 l 56 750 m 392 860 q 425 945 392 918 q 517 972 458 972 q 610 945 575 972 q 644 860 644 918 q 610 774 644 801 q 518 747 576 747 q 426 774 460 747 q 392 860 392 801 m 636 708 l 636 0 l 400 0 l 400 708 l 636 708 z "},"ﬂ":{"ha":651,"x_min":0,"x_max":643,"o":"m 56 750 q 71 869 56 821 q 114 946 86 917 q 181 988 142 975 q 269 1000 221 1000 q 390 988 326 1000 l 390 786 q 372 789 381 788 q 353 790 363 790 q 310 779 329 790 q 292 736 292 768 l 292 708 l 390 708 l 390 506 l 292 506 l 292 0 l 56 0 l 56 506 l 0 506 l 0 708 l 56 708 l 56 750 m 407 1000 l 643 1000 l 643 0 l 407 0 l 407 1000 z "},"à":{"ha":506,"x_min":8,"x_max":497,"o":"m 261 497 q 253 519 261 519 q 244 497 244 519 l 244 404 l 8 404 l 8 483 q 72 659 8 596 q 250 722 136 722 q 431 658 364 722 q 497 483 497 594 l 497 0 l 261 0 l 261 53 l 256 53 q 135 -14 203 -14 q 44 25 79 -14 q 8 126 8 64 l 8 242 q 19 297 8 271 q 50 341 31 322 q 96 371 69 360 q 153 382 122 382 l 261 382 l 261 497 m 261 268 l 251 268 q 244 257 244 268 l 244 181 q 251 169 244 169 q 261 176 257 169 l 261 268 m 179 764 l 111 954 l 292 954 l 332 764 l 179 764 z "},"á":{"ha":506,"x_min":8,"x_max":497,"o":"m 261 497 q 253 519 261 519 q 244 497 244 519 l 244 404 l 8 404 l 8 483 q 72 659 8 596 q 250 722 136 722 q 431 658 364 722 q 497 483 497 594 l 497 0 l 261 0 l 261 53 l 256 53 q 135 -14 203 -14 q 44 25 79 -14 q 8 126 8 64 l 8 242 q 19 297 8 271 q 50 341 31 322 q 96 371 69 360 q 153 382 122 382 l 261 382 l 261 497 m 261 268 l 251 268 q 244 257 244 268 l 244 181 q 251 169 244 169 q 261 176 257 169 l 261 268 m 168 764 l 208 954 l 389 954 l 321 764 l 168 764 z "},"â":{"ha":506,"x_min":8,"x_max":497,"o":"m 261 497 q 253 519 261 519 q 244 497 244 519 l 244 404 l 8 404 l 8 483 q 72 659 8 596 q 250 722 136 722 q 431 658 364 722 q 497 483 497 594 l 497 0 l 261 0 l 261 53 l 256 53 q 135 -14 203 -14 q 44 25 79 -14 q 8 126 8 64 l 8 242 q 19 297 8 271 q 50 341 31 322 q 96 371 69 360 q 153 382 122 382 l 261 382 l 261 497 m 261 268 l 251 268 q 244 257 244 268 l 244 181 q 251 169 244 169 q 261 176 257 169 l 261 268 m 111 764 l 167 954 l 333 954 l 389 764 l 261 764 l 254 828 l 246 828 l 239 764 l 111 764 z "},"ã":{"ha":506,"x_min":8,"x_max":497,"o":"m 261 497 q 253 519 261 519 q 244 497 244 519 l 244 404 l 8 404 l 8 483 q 72 659 8 596 q 250 722 136 722 q 431 658 364 722 q 497 483 497 594 l 497 0 l 261 0 l 261 53 l 256 53 q 135 -14 203 -14 q 44 25 79 -14 q 8 126 8 64 l 8 242 q 19 297 8 271 q 50 341 31 322 q 96 371 69 360 q 153 382 122 382 l 261 382 l 261 497 m 261 268 l 251 268 q 244 257 244 268 l 244 181 q 251 169 244 169 q 261 176 257 169 l 261 268 m 385 947 q 367 808 385 851 q 315 764 350 764 q 279 772 297 764 q 244 788 261 779 l 239 790 q 212 803 224 797 q 190 808 200 808 q 168 771 168 808 l 168 769 l 114 769 l 114 772 q 133 907 114 860 q 188 954 151 954 q 220 947 203 954 q 254 932 238 940 l 260 929 q 288 917 275 922 q 310 913 300 913 q 332 947 332 913 l 332 950 l 385 950 l 385 947 z "},"ä":{"ha":506,"x_min":8,"x_max":497,"o":"m 261 497 q 253 519 261 519 q 244 497 244 519 l 244 404 l 8 404 l 8 483 q 72 659 8 596 q 250 722 136 722 q 431 658 364 722 q 497 483 497 594 l 497 0 l 261 0 l 261 53 l 256 53 q 135 -14 203 -14 q 44 25 79 -14 q 8 126 8 64 l 8 242 q 19 297 8 271 q 50 341 31 322 q 96 371 69 360 q 153 382 122 382 l 261 382 l 261 497 m 261 268 l 251 268 q 244 257 244 268 l 244 181 q 251 169 244 169 q 261 176 257 169 l 261 268 m 49 860 q 69 934 49 907 q 146 961 89 961 q 224 933 203 961 q 246 858 246 906 q 225 784 246 811 q 147 757 204 757 q 69 784 90 757 q 49 860 49 811 m 254 860 q 274 934 254 907 q 351 961 294 961 q 430 933 408 961 q 451 858 451 906 q 431 784 451 811 q 353 757 410 757 q 275 784 296 757 q 254 860 254 811 z "},"å":{"ha":506,"x_min":8,"x_max":497,"o":"m 261 497 q 253 519 261 519 q 244 497 244 519 l 244 404 l 8 404 l 8 483 q 72 659 8 596 q 250 722 136 722 q 431 658 364 722 q 497 483 497 594 l 497 0 l 261 0 l 261 53 l 256 53 q 135 -14 203 -14 q 44 25 79 -14 q 8 126 8 64 l 8 242 q 19 297 8 271 q 50 341 31 322 q 96 371 69 360 q 153 382 122 382 l 261 382 l 261 497 m 261 268 l 251 268 q 244 257 244 268 l 244 181 q 251 169 244 169 q 261 176 257 169 l 261 268 m 131 860 q 163 937 131 913 q 249 961 194 961 q 337 936 304 961 q 369 860 369 911 q 338 782 369 807 q 250 757 306 757 q 163 782 194 757 q 131 860 131 807 m 207 860 q 250 825 207 825 q 293 860 293 825 q 250 893 293 893 q 207 860 207 893 z "},"æ":{"ha":758,"x_min":8,"x_max":750,"o":"m 261 497 q 253 519 261 519 q 244 497 244 519 l 244 404 l 8 404 l 8 483 q 72 659 8 596 q 250 722 136 722 q 314 715 286 722 q 368 696 342 708 l 385 696 q 438 715 410 708 q 503 722 467 722 q 683 658 617 722 q 750 483 750 594 l 750 299 l 497 299 l 497 211 q 506 189 497 189 q 514 211 514 189 l 514 271 l 750 271 l 750 225 q 683 50 750 114 q 503 -14 617 -14 q 374 16 425 -14 q 296 101 324 46 l 279 101 q 213 13 249 40 q 135 -14 176 -14 q 44 25 79 -14 q 8 126 8 64 l 8 242 q 19 297 8 271 q 50 341 31 322 q 96 371 69 360 q 153 382 122 382 l 261 382 l 261 497 m 497 424 l 514 424 l 514 497 q 506 519 514 519 q 497 497 497 519 l 497 424 m 261 268 l 251 268 q 244 257 244 268 l 244 181 q 251 169 244 169 q 261 176 257 169 l 261 268 z "},"ç":{"ha":506,"x_min":8,"x_max":497,"o":"m 244 211 q 253 189 244 189 q 261 211 261 189 l 261 340 l 497 340 l 497 225 q 431 50 497 114 q 250 -14 364 -14 q 72 49 136 -14 q 8 225 8 113 l 8 483 q 72 659 8 596 q 250 722 136 722 q 431 658 364 722 q 497 483 497 594 l 497 368 l 261 368 l 261 497 q 253 519 261 519 q 244 497 244 519 l 244 211 m 210 0 l 301 0 l 294 -69 q 394 -97 361 -69 q 426 -161 426 -125 q 387 -233 426 -200 q 265 -267 347 -267 q 216 -264 243 -267 q 160 -256 189 -261 l 160 -168 q 199 -172 181 -172 q 241 -165 224 -172 q 258 -147 258 -158 q 239 -131 258 -136 q 188 -125 219 -125 l 210 0 z "},"đ":{"ha":506,"x_min":8,"x_max":539,"o":"m 261 0 l 261 63 l 244 63 q 197 6 225 25 q 139 -14 168 -14 q 91 -1 114 -14 q 49 39 68 13 q 19 106 31 65 q 8 199 8 146 l 8 560 q 19 634 8 603 q 47 685 29 665 q 86 714 64 704 q 131 724 108 724 q 198 703 167 724 q 244 646 229 682 l 261 646 l 261 1000 l 497 1000 l 497 0 l 261 0 m 261 508 q 251 515 257 515 q 244 504 244 515 l 244 208 q 251 196 244 196 q 261 203 257 196 l 261 508 m 539 776 l 192 776 l 192 938 l 539 938 l 539 776 z "},"è":{"ha":506,"x_min":8,"x_max":497,"o":"m 497 271 l 497 225 q 431 50 497 114 q 250 -14 364 -14 q 72 49 136 -14 q 8 225 8 113 l 8 483 q 72 659 8 596 q 250 722 136 722 q 431 658 364 722 q 497 483 497 594 l 497 299 l 244 299 l 244 211 q 253 189 244 189 q 261 211 261 189 l 261 271 l 497 271 m 244 424 l 261 424 l 261 497 q 253 519 261 519 q 244 497 244 519 l 244 424 m 179 764 l 111 954 l 292 954 l 332 764 l 179 764 z "},"é":{"ha":506,"x_min":8,"x_max":497,"o":"m 497 271 l 497 225 q 431 50 497 114 q 250 -14 364 -14 q 72 49 136 -14 q 8 225 8 113 l 8 483 q 72 659 8 596 q 250 722 136 722 q 431 658 364 722 q 497 483 497 594 l 497 299 l 244 299 l 244 211 q 253 189 244 189 q 261 211 261 189 l 261 271 l 497 271 m 244 424 l 261 424 l 261 497 q 253 519 261 519 q 244 497 244 519 l 244 424 m 168 764 l 208 954 l 389 954 l 321 764 l 168 764 z "},"ê":{"ha":506,"x_min":8,"x_max":497,"o":"m 497 271 l 497 225 q 431 50 497 114 q 250 -14 364 -14 q 72 49 136 -14 q 8 225 8 113 l 8 483 q 72 659 8 596 q 250 722 136 722 q 431 658 364 722 q 497 483 497 594 l 497 299 l 244 299 l 244 211 q 253 189 244 189 q 261 211 261 189 l 261 271 l 497 271 m 244 424 l 261 424 l 261 497 q 253 519 261 519 q 244 497 244 519 l 244 424 m 111 764 l 167 954 l 333 954 l 389 764 l 261 764 l 254 828 l 246 828 l 239 764 l 111 764 z "},"ë":{"ha":506,"x_min":8,"x_max":497,"o":"m 497 271 l 497 225 q 431 50 497 114 q 250 -14 364 -14 q 72 49 136 -14 q 8 225 8 113 l 8 483 q 72 659 8 596 q 250 722 136 722 q 431 658 364 722 q 497 483 497 594 l 497 299 l 244 299 l 244 211 q 253 189 244 189 q 261 211 261 189 l 261 271 l 497 271 m 244 424 l 261 424 l 261 497 q 253 519 261 519 q 244 497 244 519 l 244 424 m 49 860 q 69 934 49 907 q 146 961 89 961 q 224 933 203 961 q 246 858 246 906 q 225 784 246 811 q 147 757 204 757 q 69 784 90 757 q 49 860 49 811 m 254 860 q 274 934 254 907 q 351 961 294 961 q 430 933 408 961 q 451 858 451 906 q 431 784 451 811 q 353 757 410 757 q 275 784 296 757 q 254 860 254 811 z "},"ì":{"ha":256,"x_min":-11,"x_max":246,"o":"m 246 708 l 246 0 l 10 0 l 10 708 l 246 708 m 57 764 l -11 954 l 169 954 l 210 764 l 57 764 z "},"í":{"ha":256,"x_min":10,"x_max":267,"o":"m 246 708 l 246 0 l 10 0 l 10 708 l 246 708 m 46 764 l 86 954 l 267 954 l 199 764 l 46 764 z "},"î":{"ha":256,"x_min":-11,"x_max":267,"o":"m 246 708 l 246 0 l 10 0 l 10 708 l 246 708 m -11 764 l 44 954 l 211 954 l 267 764 l 139 764 l 132 828 l 124 828 l 117 764 l -11 764 z "},"ï":{"ha":419,"x_min":8,"x_max":411,"o":"m 328 708 l 328 0 l 92 0 l 92 708 l 328 708 m 8 860 q 28 934 8 907 q 106 961 49 961 q 184 933 163 961 q 206 858 206 906 q 185 784 206 811 q 107 757 164 757 q 29 784 50 757 q 8 860 8 811 m 214 860 q 234 934 214 907 q 311 961 254 961 q 390 933 368 961 q 411 858 411 906 q 390 784 411 811 q 313 757 369 757 q 235 784 256 757 q 214 860 214 811 z "},"ł":{"ha":253,"x_min":-82,"x_max":333,"o":"m 8 1000 l 244 1000 l 244 0 l 8 0 l 8 1000 m 333 493 l -26 364 l -82 515 l 278 644 l 333 493 z "},"ñ":{"ha":506,"x_min":8,"x_max":497,"o":"m 8 708 l 244 708 l 244 647 l 261 647 q 371 722 300 722 q 419 713 396 722 q 459 681 442 703 q 487 624 476 658 q 497 540 497 589 l 497 0 l 261 0 l 261 506 q 254 517 261 517 q 244 510 249 517 l 244 0 l 8 0 l 8 708 m 389 947 q 372 808 389 851 q 319 764 354 764 q 283 772 301 764 q 249 788 265 779 l 243 790 q 216 803 228 797 q 194 808 204 808 q 172 771 172 808 l 172 769 l 118 769 l 118 772 q 137 907 118 860 q 192 954 156 954 q 224 947 207 954 q 258 932 242 940 l 264 929 q 292 917 279 922 q 314 913 304 913 q 336 947 336 913 l 336 950 l 389 950 l 389 947 z "},"ò":{"ha":506,"x_min":8,"x_max":497,"o":"m 8 483 q 69 655 8 588 q 250 722 129 722 q 357 704 311 722 q 434 654 403 686 q 481 578 465 622 q 497 483 497 535 l 497 225 q 481 130 497 174 q 434 54 465 86 q 357 4 403 22 q 250 -14 311 -14 q 69 53 129 -14 q 8 225 8 121 l 8 483 m 244 211 q 253 189 244 189 q 261 211 261 189 l 261 497 q 253 519 261 519 q 244 497 244 519 l 244 211 m 179 764 l 111 954 l 292 954 l 332 764 l 179 764 z "},"ó":{"ha":506,"x_min":8,"x_max":497,"o":"m 8 483 q 69 655 8 588 q 250 722 129 722 q 357 704 311 722 q 434 654 403 686 q 481 578 465 622 q 497 483 497 535 l 497 225 q 481 130 497 174 q 434 54 465 86 q 357 4 403 22 q 250 -14 311 -14 q 69 53 129 -14 q 8 225 8 121 l 8 483 m 244 211 q 253 189 244 189 q 261 211 261 189 l 261 497 q 253 519 261 519 q 244 497 244 519 l 244 211 m 168 764 l 208 954 l 389 954 l 321 764 l 168 764 z "},"ô":{"ha":506,"x_min":8,"x_max":497,"o":"m 8 483 q 69 655 8 588 q 250 722 129 722 q 357 704 311 722 q 434 654 403 686 q 481 578 465 622 q 497 483 497 535 l 497 225 q 481 130 497 174 q 434 54 465 86 q 357 4 403 22 q 250 -14 311 -14 q 69 53 129 -14 q 8 225 8 121 l 8 483 m 244 211 q 253 189 244 189 q 261 211 261 189 l 261 497 q 253 519 261 519 q 244 497 244 519 l 244 211 m 111 764 l 167 954 l 333 954 l 389 764 l 261 764 l 254 828 l 246 828 l 239 764 l 111 764 z "},"õ":{"ha":506,"x_min":8,"x_max":497,"o":"m 8 483 q 69 655 8 588 q 250 722 129 722 q 357 704 311 722 q 434 654 403 686 q 481 578 465 622 q 497 483 497 535 l 497 225 q 481 130 497 174 q 434 54 465 86 q 357 4 403 22 q 250 -14 311 -14 q 69 53 129 -14 q 8 225 8 121 l 8 483 m 244 211 q 253 189 244 189 q 261 211 261 189 l 261 497 q 253 519 261 519 q 244 497 244 519 l 244 211 m 385 947 q 367 808 385 851 q 315 764 350 764 q 279 772 297 764 q 244 788 261 779 l 239 790 q 212 803 224 797 q 190 808 200 808 q 168 771 168 808 l 168 769 l 114 769 l 114 772 q 133 907 114 860 q 188 954 151 954 q 220 947 203 954 q 254 932 238 940 l 260 929 q 288 917 275 922 q 310 913 300 913 q 332 947 332 913 l 332 950 l 385 950 l 385 947 z "},"ö":{"ha":506,"x_min":8,"x_max":497,"o":"m 8 483 q 69 655 8 588 q 250 722 129 722 q 357 704 311 722 q 434 654 403 686 q 481 578 465 622 q 497 483 497 535 l 497 225 q 481 130 497 174 q 434 54 465 86 q 357 4 403 22 q 250 -14 311 -14 q 69 53 129 -14 q 8 225 8 121 l 8 483 m 244 211 q 253 189 244 189 q 261 211 261 189 l 261 497 q 253 519 261 519 q 244 497 244 519 l 244 211 m 49 860 q 69 934 49 907 q 146 961 89 961 q 224 933 203 961 q 246 858 246 906 q 225 784 246 811 q 147 757 204 757 q 69 784 90 757 q 49 860 49 811 m 254 860 q 274 934 254 907 q 351 961 294 961 q 430 933 408 961 q 451 858 451 906 q 431 784 451 811 q 353 757 410 757 q 275 784 296 757 q 254 860 254 811 z "},"ø":{"ha":506,"x_min":8,"x_max":497,"o":"m 8 483 q 69 655 8 588 q 250 722 129 722 q 419 668 354 722 l 453 724 l 497 697 l 454 629 q 497 483 497 572 l 497 225 q 481 130 497 174 q 434 54 465 86 q 357 4 403 22 q 250 -14 311 -14 q 156 0 197 -14 q 86 38 115 14 l 53 -14 l 10 11 l 50 76 q 8 225 8 138 l 8 483 m 244 388 l 261 414 l 261 497 q 253 519 261 519 q 244 497 244 519 l 244 388 m 244 211 q 253 189 244 189 q 261 211 261 189 l 261 319 l 244 293 l 244 211 z "},"œ":{"ha":758,"x_min":8,"x_max":750,"o":"m 8 483 q 69 655 8 588 q 250 722 129 722 q 315 715 288 722 q 368 696 343 708 l 385 696 q 438 715 410 708 q 503 722 467 722 q 683 658 617 722 q 750 483 750 594 l 750 299 l 497 299 l 497 211 q 506 189 497 189 q 514 211 514 189 l 514 271 l 750 271 l 750 225 q 683 50 750 114 q 503 -14 617 -14 q 439 -7 467 -14 q 386 13 411 0 l 369 13 q 316 -7 344 0 q 250 -14 288 -14 q 69 53 129 -14 q 8 225 8 121 l 8 483 m 244 211 q 253 189 244 189 q 261 211 261 189 l 261 497 q 253 519 261 519 q 244 497 244 519 l 244 211 m 497 424 l 514 424 l 514 497 q 506 519 514 519 q 497 497 497 519 l 497 424 z "},"Þ":{"ha":533,"x_min":8,"x_max":525,"o":"m 258 972 l 258 829 l 264 829 q 458 745 390 829 q 525 478 525 661 l 525 475 q 509 317 525 381 q 460 215 493 253 q 378 160 428 176 q 261 143 328 143 l 258 143 l 258 0 l 8 0 l 8 972 l 258 972 m 258 360 l 261 360 q 274 363 272 360 q 275 382 275 367 l 275 590 q 274 609 275 606 q 261 613 272 613 l 258 613 l 258 360 z "},"š":{"ha":506,"x_min":8,"x_max":497,"o":"m 261 467 l 261 497 q 253 518 261 518 q 244 497 244 518 l 244 496 q 251 467 244 476 q 282 447 258 458 l 381 399 q 467 330 439 369 q 496 219 496 290 l 496 197 q 480 117 496 156 q 433 50 464 79 q 355 3 401 21 q 249 -14 308 -14 q 144 3 189 -14 q 69 52 100 21 q 24 125 39 83 q 8 214 8 167 l 8 242 l 244 242 l 244 214 q 253 193 244 193 q 261 214 261 193 l 261 215 q 253 244 261 235 q 218 265 246 253 l 118 311 q 34 378 58 339 q 10 489 10 418 l 10 511 q 25 591 10 553 q 71 658 40 629 q 147 705 101 688 q 251 722 192 722 q 357 704 311 722 q 434 656 403 686 q 481 584 465 625 q 497 496 497 543 l 497 467 l 261 467 m 389 956 l 333 765 l 167 765 l 111 956 l 239 956 l 246 892 l 254 892 l 261 956 l 389 956 z "},"ù":{"ha":506,"x_min":8,"x_max":497,"o":"m 497 0 l 261 0 l 261 61 l 244 61 q 135 -14 206 -14 q 46 28 83 -14 q 8 168 8 71 l 8 708 l 244 708 l 244 197 q 251 186 244 186 q 261 193 257 186 l 261 708 l 497 708 l 497 0 m 179 764 l 111 954 l 292 954 l 332 764 l 179 764 z "},"ú":{"ha":506,"x_min":8,"x_max":497,"o":"m 497 0 l 261 0 l 261 61 l 244 61 q 135 -14 206 -14 q 46 28 83 -14 q 8 168 8 71 l 8 708 l 244 708 l 244 197 q 251 186 244 186 q 261 193 257 186 l 261 708 l 497 708 l 497 0 m 168 764 l 208 954 l 389 954 l 321 764 l 168 764 z "},"û":{"ha":506,"x_min":8,"x_max":497,"o":"m 497 0 l 261 0 l 261 61 l 244 61 q 135 -14 206 -14 q 46 28 83 -14 q 8 168 8 71 l 8 708 l 244 708 l 244 197 q 251 186 244 186 q 261 193 257 186 l 261 708 l 497 708 l 497 0 m 111 764 l 167 954 l 333 954 l 389 764 l 261 764 l 254 828 l 246 828 l 239 764 l 111 764 z "},"ü":{"ha":506,"x_min":8,"x_max":497,"o":"m 497 0 l 261 0 l 261 61 l 244 61 q 135 -14 206 -14 q 46 28 83 -14 q 8 168 8 71 l 8 708 l 244 708 l 244 197 q 251 186 244 186 q 261 193 257 186 l 261 708 l 497 708 l 497 0 m 49 860 q 69 934 49 907 q 146 961 89 961 q 224 933 203 961 q 246 858 246 906 q 225 784 246 811 q 147 757 204 757 q 69 784 90 757 q 49 860 49 811 m 254 860 q 274 934 254 907 q 351 961 294 961 q 430 933 408 961 q 451 858 451 906 q 431 784 451 811 q 353 757 410 757 q 275 784 296 757 q 254 860 254 811 z "},"ý":{"ha":506,"x_min":8,"x_max":497,"o":"m 497 -81 q 435 -237 497 -182 q 254 -292 372 -292 q 72 -236 136 -292 q 8 -81 8 -181 l 8 -36 l 244 -36 l 244 -67 q 253 -89 244 -89 q 261 -64 261 -89 l 261 61 l 244 61 q 135 -14 206 -14 q 46 28 83 -14 q 8 168 8 71 l 8 708 l 244 708 l 244 197 q 251 186 244 186 q 261 193 257 186 l 261 708 l 497 708 l 497 -81 m 168 764 l 208 954 l 389 954 l 321 764 l 168 764 z "},"ÿ":{"ha":506,"x_min":8,"x_max":497,"o":"m 497 -81 q 435 -237 497 -182 q 254 -292 372 -292 q 72 -236 136 -292 q 8 -81 8 -181 l 8 -36 l 244 -36 l 244 -67 q 253 -89 244 -89 q 261 -64 261 -89 l 261 61 l 244 61 q 135 -14 206 -14 q 46 28 83 -14 q 8 168 8 71 l 8 708 l 244 708 l 244 197 q 251 186 244 186 q 261 193 257 186 l 261 708 l 497 708 l 497 -81 m 49 860 q 69 934 49 907 q 146 961 89 961 q 224 933 203 961 q 246 858 246 906 q 225 784 246 811 q 147 757 204 757 q 69 784 90 757 q 49 860 49 811 m 254 860 q 274 934 254 907 q 351 961 294 961 q 430 933 408 961 q 451 858 451 906 q 431 784 451 811 q 353 757 410 757 q 275 784 296 757 q 254 860 254 811 z "},"ž":{"ha":435,"x_min":8,"x_max":426,"o":"m 8 0 l 8 201 l 158 490 l 151 506 l 15 506 l 15 708 l 417 708 l 417 507 l 267 217 l 275 203 l 426 203 l 426 0 l 8 0 m 364 954 l 308 764 l 142 764 l 86 954 l 214 954 l 221 890 l 229 890 l 236 954 l 364 954 z "},"þ":{"ha":506,"x_min":8,"x_max":497,"o":"m 8 1000 l 244 1000 l 244 647 l 261 647 q 375 722 297 722 q 465 681 432 722 q 497 554 497 640 l 497 178 q 463 38 497 89 q 369 -14 428 -14 q 306 5 335 -14 q 261 61 278 24 l 244 61 l 244 -292 l 8 -292 l 8 1000 m 244 200 q 254 193 249 193 q 261 207 261 193 l 261 504 q 254 515 261 515 q 244 508 249 515 l 244 200 z "},"Ā":{"ha":525,"x_min":4,"x_max":521,"o":"m 460 972 l 521 0 l 271 0 l 271 200 l 254 200 l 254 0 l 4 0 l 71 972 l 460 972 m 271 417 l 271 536 l 254 536 l 254 417 l 271 417 m 415 1033 l 110 1033 l 110 1214 l 415 1214 l 415 1033 z "},"ā":{"ha":506,"x_min":8,"x_max":497,"o":"m 261 497 q 253 519 261 519 q 244 497 244 519 l 244 404 l 8 404 l 8 483 q 72 659 8 596 q 250 722 136 722 q 431 658 364 722 q 497 483 497 594 l 497 0 l 261 0 l 261 53 l 256 53 q 135 -14 203 -14 q 44 25 79 -14 q 8 126 8 64 l 8 242 q 19 297 8 271 q 50 341 31 322 q 96 371 69 360 q 153 382 122 382 l 261 382 l 261 497 m 261 268 l 251 268 q 244 257 244 268 l 244 181 q 251 169 244 169 q 261 176 257 169 l 261 268 m 403 769 l 97 769 l 97 950 l 403 950 l 403 769 z "},"Ă":{"ha":525,"x_min":4,"x_max":521,"o":"m 460 972 l 521 0 l 271 0 l 271 200 l 254 200 l 254 0 l 4 0 l 71 972 l 460 972 m 271 417 l 271 536 l 254 536 l 254 417 l 271 417 m 232 1218 q 263 1167 232 1167 q 293 1218 293 1167 l 432 1218 q 389 1071 432 1114 q 263 1028 346 1028 q 136 1071 179 1028 q 93 1218 93 1114 l 232 1218 z "},"ă":{"ha":506,"x_min":8,"x_max":497,"o":"m 261 497 q 253 519 261 519 q 244 497 244 519 l 244 404 l 8 404 l 8 483 q 72 659 8 596 q 250 722 136 722 q 431 658 364 722 q 497 483 497 594 l 497 0 l 261 0 l 261 53 l 256 53 q 135 -14 203 -14 q 44 25 79 -14 q 8 126 8 64 l 8 242 q 19 297 8 271 q 50 341 31 322 q 96 371 69 360 q 153 382 122 382 l 261 382 l 261 497 m 261 268 l 251 268 q 244 257 244 268 l 244 181 q 251 169 244 169 q 261 176 257 169 l 261 268 m 219 954 q 250 903 219 903 q 281 954 281 903 l 419 954 q 376 807 419 850 q 250 764 333 764 q 124 807 167 764 q 81 954 81 850 l 219 954 z "},"Ą":{"ha":525,"x_min":4,"x_max":521,"o":"m 460 972 l 521 0 l 271 0 l 271 200 l 254 200 l 254 0 l 4 0 l 71 972 l 460 972 m 271 417 l 271 536 l 254 536 l 254 417 l 271 417 m 519 11 l 519 1 q 469 -22 488 1 q 451 -69 451 -44 q 463 -103 451 -89 q 500 -117 475 -117 q 509 -117 504 -117 q 519 -115 514 -117 l 519 -233 q 478 -242 497 -240 q 440 -244 458 -244 q 333 -211 369 -244 q 296 -133 296 -178 q 309 -83 296 -108 q 350 -36 322 -57 q 420 -2 378 -15 q 519 11 463 11 z "},"ą":{"ha":506,"x_min":8,"x_max":497,"o":"m 261 497 q 253 519 261 519 q 244 497 244 519 l 244 404 l 8 404 l 8 483 q 72 659 8 596 q 250 722 136 722 q 431 658 364 722 q 497 483 497 594 l 497 0 l 261 0 l 261 53 l 256 53 q 135 -14 203 -14 q 44 25 79 -14 q 8 126 8 64 l 8 242 q 19 297 8 271 q 50 341 31 322 q 96 371 69 360 q 153 382 122 382 l 261 382 l 261 497 m 261 268 l 251 268 q 244 257 244 268 l 244 181 q 251 169 244 169 q 261 176 257 169 l 261 268 m 496 11 l 496 1 q 446 -22 464 1 q 428 -69 428 -44 q 440 -103 428 -89 q 476 -117 451 -117 q 485 -117 481 -117 q 496 -115 490 -117 l 496 -233 q 454 -242 474 -240 q 417 -244 435 -244 q 309 -211 346 -244 q 272 -133 272 -178 q 285 -83 272 -108 q 326 -36 299 -57 q 397 -2 354 -15 q 496 11 439 11 z "},"Ć":{"ha":533,"x_min":8,"x_max":525,"o":"m 258 225 q 267 203 258 203 q 275 225 275 203 l 275 472 l 525 472 l 525 244 q 457 53 525 119 q 263 -14 389 -14 q 74 52 139 -14 q 8 244 8 118 l 8 729 q 74 921 8 856 q 263 986 139 986 q 457 919 389 986 q 525 729 525 853 l 525 500 l 275 500 l 275 747 q 267 769 275 769 q 258 747 258 769 l 258 225 m 185 1028 l 225 1218 l 406 1218 l 338 1028 l 185 1028 z "},"ć":{"ha":506,"x_min":8,"x_max":497,"o":"m 244 211 q 253 189 244 189 q 261 211 261 189 l 261 340 l 497 340 l 497 225 q 431 50 497 114 q 250 -14 364 -14 q 72 49 136 -14 q 8 225 8 113 l 8 483 q 72 659 8 596 q 250 722 136 722 q 431 658 364 722 q 497 483 497 594 l 497 368 l 261 368 l 261 497 q 253 519 261 519 q 244 497 244 519 l 244 211 m 168 764 l 208 954 l 389 954 l 321 764 l 168 764 z "},"Ĉ":{"ha":533,"x_min":8,"x_max":525,"o":"m 258 225 q 267 203 258 203 q 275 225 275 203 l 275 472 l 525 472 l 525 244 q 457 53 525 119 q 263 -14 389 -14 q 74 52 139 -14 q 8 244 8 118 l 8 729 q 74 921 8 856 q 263 986 139 986 q 457 919 389 986 q 525 729 525 853 l 525 500 l 275 500 l 275 747 q 267 769 275 769 q 258 747 258 769 l 258 225 m 128 1028 l 183 1218 l 350 1218 l 406 1028 l 278 1028 l 271 1092 l 263 1092 l 256 1028 l 128 1028 z "},"ĉ":{"ha":506,"x_min":8,"x_max":497,"o":"m 244 211 q 253 189 244 189 q 261 211 261 189 l 261 340 l 497 340 l 497 225 q 431 50 497 114 q 250 -14 364 -14 q 72 49 136 -14 q 8 225 8 113 l 8 483 q 72 659 8 596 q 250 722 136 722 q 431 658 364 722 q 497 483 497 594 l 497 368 l 261 368 l 261 497 q 253 519 261 519 q 244 497 244 519 l 244 211 m 111 764 l 167 954 l 333 954 l 389 764 l 261 764 l 254 828 l 246 828 l 239 764 l 111 764 z "},"Ċ":{"ha":533,"x_min":8,"x_max":525,"o":"m 258 225 q 267 203 258 203 q 275 225 275 203 l 275 472 l 525 472 l 525 244 q 457 53 525 119 q 263 -14 389 -14 q 74 52 139 -14 q 8 244 8 118 l 8 729 q 74 921 8 856 q 263 986 139 986 q 457 919 389 986 q 525 729 525 853 l 525 500 l 275 500 l 275 747 q 267 769 275 769 q 258 747 258 769 l 258 225 m 168 1124 q 188 1198 168 1171 q 265 1225 208 1225 q 344 1197 322 1225 q 365 1122 365 1169 q 344 1048 365 1075 q 267 1021 324 1021 q 189 1048 210 1021 q 168 1124 168 1075 z "},"ċ":{"ha":506,"x_min":8,"x_max":497,"o":"m 244 211 q 253 189 244 189 q 261 211 261 189 l 261 340 l 497 340 l 497 225 q 431 50 497 114 q 250 -14 364 -14 q 72 49 136 -14 q 8 225 8 113 l 8 483 q 72 659 8 596 q 250 722 136 722 q 431 658 364 722 q 497 483 497 594 l 497 368 l 261 368 l 261 497 q 253 519 261 519 q 244 497 244 519 l 244 211 m 151 860 q 172 934 151 907 q 249 961 192 961 q 327 933 306 961 q 349 858 349 906 q 328 784 349 811 q 250 757 307 757 q 172 784 193 757 q 151 860 151 811 z "},"Č":{"ha":533,"x_min":8,"x_max":525,"o":"m 258 225 q 267 203 258 203 q 275 225 275 203 l 275 472 l 525 472 l 525 244 q 457 53 525 119 q 263 -14 389 -14 q 74 52 139 -14 q 8 244 8 118 l 8 729 q 74 921 8 856 q 263 986 139 986 q 457 919 389 986 q 525 729 525 853 l 525 500 l 275 500 l 275 747 q 267 769 275 769 q 258 747 258 769 l 258 225 m 406 1219 l 350 1029 l 183 1029 l 128 1219 l 256 1219 l 263 1156 l 271 1156 l 278 1219 l 406 1219 z "},"č":{"ha":506,"x_min":8,"x_max":497,"o":"m 244 211 q 253 189 244 189 q 261 211 261 189 l 261 340 l 497 340 l 497 225 q 431 50 497 114 q 250 -14 364 -14 q 72 49 136 -14 q 8 225 8 113 l 8 483 q 72 659 8 596 q 250 722 136 722 q 431 658 364 722 q 497 483 497 594 l 497 368 l 261 368 l 261 497 q 253 519 261 519 q 244 497 244 519 l 244 211 m 389 956 l 333 765 l 167 765 l 111 956 l 239 956 l 246 892 l 254 892 l 261 956 l 389 956 z "},"Ď":{"ha":533,"x_min":8,"x_max":525,"o":"m 264 972 q 457 912 389 972 q 525 729 525 851 l 525 243 q 457 60 525 119 q 264 0 389 0 l 8 0 l 8 972 l 264 972 m 260 217 l 263 217 q 274 220 272 217 q 275 239 275 224 l 275 733 q 274 752 275 749 q 263 756 272 756 l 260 756 l 260 217 m 392 1219 l 336 1029 l 169 1029 l 114 1219 l 242 1219 l 249 1156 l 257 1156 l 264 1219 l 392 1219 z "},"ď":{"ha":506,"x_min":8,"x_max":703,"o":"m 261 0 l 261 63 l 244 63 q 197 6 225 25 q 139 -14 168 -14 q 91 -1 114 -14 q 49 39 68 13 q 19 106 31 65 q 8 199 8 146 l 8 560 q 19 634 8 603 q 47 685 29 665 q 86 714 64 704 q 131 724 108 724 q 198 703 167 724 q 244 646 229 682 l 261 646 l 261 1000 l 497 1000 l 497 0 l 261 0 m 261 508 q 251 515 257 515 q 244 504 244 515 l 244 208 q 251 196 244 196 q 261 203 257 196 l 261 508 m 542 1000 l 703 1000 l 604 657 l 513 657 l 542 1000 z "},"Ē":{"ha":378,"x_min":8,"x_max":369,"o":"m 258 756 l 258 621 l 369 621 l 369 404 l 258 404 l 258 217 l 369 217 l 369 0 l 8 0 l 8 972 l 369 972 l 369 756 l 258 756 m 342 1033 l 36 1033 l 36 1214 l 342 1214 l 342 1033 z "},"ē":{"ha":506,"x_min":8,"x_max":497,"o":"m 497 271 l 497 225 q 431 50 497 114 q 250 -14 364 -14 q 72 49 136 -14 q 8 225 8 113 l 8 483 q 72 659 8 596 q 250 722 136 722 q 431 658 364 722 q 497 483 497 594 l 497 299 l 244 299 l 244 211 q 253 189 244 189 q 261 211 261 189 l 261 271 l 497 271 m 244 424 l 261 424 l 261 497 q 253 519 261 519 q 244 497 244 519 l 244 424 m 403 769 l 97 769 l 97 950 l 403 950 l 403 769 z "},"Ĕ":{"ha":378,"x_min":8,"x_max":369,"o":"m 258 756 l 258 621 l 369 621 l 369 404 l 258 404 l 258 217 l 369 217 l 369 0 l 8 0 l 8 972 l 369 972 l 369 756 l 258 756 m 158 1218 q 189 1167 158 1167 q 219 1218 219 1167 l 358 1218 q 315 1071 358 1114 q 189 1028 272 1028 q 63 1071 106 1028 q 19 1218 19 1114 l 158 1218 z "},"ĕ":{"ha":506,"x_min":8,"x_max":497,"o":"m 497 271 l 497 225 q 431 50 497 114 q 250 -14 364 -14 q 72 49 136 -14 q 8 225 8 113 l 8 483 q 72 659 8 596 q 250 722 136 722 q 431 658 364 722 q 497 483 497 594 l 497 299 l 244 299 l 244 211 q 253 189 244 189 q 261 211 261 189 l 261 271 l 497 271 m 244 424 l 261 424 l 261 497 q 253 519 261 519 q 244 497 244 519 l 244 424 m 219 954 q 250 903 219 903 q 281 954 281 903 l 419 954 q 376 807 419 850 q 250 764 333 764 q 124 807 167 764 q 81 954 81 850 l 219 954 z "},"Ė":{"ha":378,"x_min":8,"x_max":369,"o":"m 258 756 l 258 621 l 369 621 l 369 404 l 258 404 l 258 217 l 369 217 l 369 0 l 8 0 l 8 972 l 369 972 l 369 756 l 258 756 m 90 1124 q 110 1198 90 1171 q 188 1225 131 1225 q 266 1197 244 1225 q 288 1122 288 1169 q 267 1048 288 1075 q 189 1021 246 1021 q 111 1048 132 1021 q 90 1124 90 1075 z "},"ė":{"ha":506,"x_min":8,"x_max":497,"o":"m 497 271 l 497 225 q 431 50 497 114 q 250 -14 364 -14 q 72 49 136 -14 q 8 225 8 113 l 8 483 q 72 659 8 596 q 250 722 136 722 q 431 658 364 722 q 497 483 497 594 l 497 299 l 244 299 l 244 211 q 253 189 244 189 q 261 211 261 189 l 261 271 l 497 271 m 244 424 l 261 424 l 261 497 q 253 519 261 519 q 244 497 244 519 l 244 424 m 151 860 q 172 934 151 907 q 249 961 192 961 q 327 933 306 961 q 349 858 349 906 q 328 784 349 811 q 250 757 307 757 q 172 784 193 757 q 151 860 151 811 z "},"Ę":{"ha":378,"x_min":8,"x_max":369,"o":"m 258 756 l 258 621 l 369 621 l 369 404 l 258 404 l 258 217 l 369 217 l 369 0 l 8 0 l 8 972 l 369 972 l 369 756 l 258 756 m 369 11 l 369 1 q 319 -22 338 1 q 301 -69 301 -44 q 313 -103 301 -89 q 350 -117 325 -117 q 359 -117 354 -117 q 369 -115 364 -117 l 369 -233 q 328 -242 347 -240 q 290 -244 308 -244 q 183 -211 219 -244 q 146 -133 146 -178 q 159 -83 146 -108 q 200 -36 172 -57 q 270 -2 228 -15 q 369 11 313 11 z "},"ę":{"ha":506,"x_min":8,"x_max":497,"o":"m 497 271 l 497 225 q 431 50 497 114 q 250 -14 364 -14 q 72 49 136 -14 q 8 225 8 113 l 8 483 q 72 659 8 596 q 250 722 136 722 q 431 658 364 722 q 497 483 497 594 l 497 299 l 244 299 l 244 211 q 253 189 244 189 q 261 211 261 189 l 261 271 l 497 271 m 244 424 l 261 424 l 261 497 q 253 519 261 519 q 244 497 244 519 l 244 424 m 342 11 l 342 1 q 292 -22 310 1 q 274 -69 274 -44 q 285 -103 274 -89 q 322 -117 297 -117 q 331 -117 326 -117 q 342 -115 336 -117 l 342 -233 q 300 -242 319 -240 q 263 -244 281 -244 q 155 -211 192 -244 q 118 -133 118 -178 q 131 -83 118 -108 q 172 -36 144 -57 q 242 -2 200 -15 q 342 11 285 11 z "},"Ě":{"ha":378,"x_min":8,"x_max":369,"o":"m 258 756 l 258 621 l 369 621 l 369 404 l 258 404 l 258 217 l 369 217 l 369 0 l 8 0 l 8 972 l 369 972 l 369 756 l 258 756 m 328 1219 l 272 1029 l 106 1029 l 50 1219 l 178 1219 l 185 1156 l 193 1156 l 200 1219 l 328 1219 z "},"ě":{"ha":506,"x_min":8,"x_max":497,"o":"m 497 271 l 497 225 q 431 50 497 114 q 250 -14 364 -14 q 72 49 136 -14 q 8 225 8 113 l 8 483 q 72 659 8 596 q 250 722 136 722 q 431 658 364 722 q 497 483 497 594 l 497 299 l 244 299 l 244 211 q 253 189 244 189 q 261 211 261 189 l 261 271 l 497 271 m 244 424 l 261 424 l 261 497 q 253 519 261 519 q 244 497 244 519 l 244 424 m 389 956 l 333 765 l 167 765 l 111 956 l 239 956 l 246 892 l 254 892 l 261 956 l 389 956 z "},"Ĝ":{"ha":533,"x_min":8,"x_max":525,"o":"m 258 544 l 525 544 l 525 0 l 356 0 l 356 78 l 339 78 q 289 10 328 33 q 203 -14 250 -14 q 133 1 168 -14 q 71 47 99 15 q 26 126 43 78 q 8 244 8 175 l 8 729 q 74 921 8 856 q 263 986 139 986 q 457 919 389 986 q 525 729 525 853 l 525 572 l 275 572 l 275 747 q 267 769 275 769 q 258 747 258 769 l 258 544 m 258 225 q 267 203 258 203 q 275 225 275 203 l 275 383 l 258 383 l 258 225 m 128 1028 l 183 1218 l 350 1218 l 406 1028 l 278 1028 l 271 1092 l 263 1092 l 256 1028 l 128 1028 z "},"ĝ":{"ha":506,"x_min":8,"x_max":497,"o":"m 497 -81 q 435 -237 497 -182 q 254 -292 372 -292 q 72 -236 136 -292 q 8 -81 8 -181 l 8 -36 l 244 -36 l 244 -67 q 253 -89 244 -89 q 261 -64 261 -89 l 261 61 l 244 61 q 199 6 228 25 q 138 -14 171 -14 q 43 38 78 -14 q 8 178 8 89 l 8 540 q 42 674 8 626 q 135 722 75 722 q 198 704 169 722 q 244 647 226 686 l 261 647 l 261 708 l 497 708 l 497 -81 m 261 506 q 251 514 257 514 q 244 501 244 514 l 244 213 q 251 193 244 193 q 261 203 257 193 l 261 506 m 86 764 l 142 954 l 308 954 l 364 764 l 236 764 l 229 828 l 221 828 l 214 764 l 86 764 z "},"Ğ":{"ha":533,"x_min":8,"x_max":525,"o":"m 258 544 l 525 544 l 525 0 l 356 0 l 356 78 l 339 78 q 289 10 328 33 q 203 -14 250 -14 q 133 1 168 -14 q 71 47 99 15 q 26 126 43 78 q 8 244 8 175 l 8 729 q 74 921 8 856 q 263 986 139 986 q 457 919 389 986 q 525 729 525 853 l 525 572 l 275 572 l 275 747 q 267 769 275 769 q 258 747 258 769 l 258 544 m 258 225 q 267 203 258 203 q 275 225 275 203 l 275 383 l 258 383 l 258 225 m 236 1218 q 267 1167 236 1167 q 297 1218 297 1167 l 436 1218 q 393 1071 436 1114 q 267 1028 350 1028 q 140 1071 183 1028 q 97 1218 97 1114 l 236 1218 z "},"ğ":{"ha":506,"x_min":8,"x_max":497,"o":"m 497 -81 q 435 -237 497 -182 q 254 -292 372 -292 q 72 -236 136 -292 q 8 -81 8 -181 l 8 -36 l 244 -36 l 244 -67 q 253 -89 244 -89 q 261 -64 261 -89 l 261 61 l 244 61 q 199 6 228 25 q 138 -14 171 -14 q 43 38 78 -14 q 8 178 8 89 l 8 540 q 42 674 8 626 q 135 722 75 722 q 198 704 169 722 q 244 647 226 686 l 261 647 l 261 708 l 497 708 l 497 -81 m 261 506 q 251 514 257 514 q 244 501 244 514 l 244 213 q 251 193 244 193 q 261 203 257 193 l 261 506 m 194 954 q 225 903 194 903 q 256 954 256 903 l 394 954 q 351 807 394 850 q 225 764 308 764 q 99 807 142 764 q 56 954 56 850 l 194 954 z "},"Ġ":{"ha":533,"x_min":8,"x_max":525,"o":"m 258 544 l 525 544 l 525 0 l 356 0 l 356 78 l 339 78 q 289 10 328 33 q 203 -14 250 -14 q 133 1 168 -14 q 71 47 99 15 q 26 126 43 78 q 8 244 8 175 l 8 729 q 74 921 8 856 q 263 986 139 986 q 457 919 389 986 q 525 729 525 853 l 525 572 l 275 572 l 275 747 q 267 769 275 769 q 258 747 258 769 l 258 544 m 258 225 q 267 203 258 203 q 275 225 275 203 l 275 383 l 258 383 l 258 225 m 168 1124 q 188 1198 168 1171 q 265 1225 208 1225 q 344 1197 322 1225 q 365 1122 365 1169 q 344 1048 365 1075 q 267 1021 324 1021 q 189 1048 210 1021 q 168 1124 168 1075 z "},"ġ":{"ha":506,"x_min":8,"x_max":497,"o":"m 497 -81 q 435 -237 497 -182 q 254 -292 372 -292 q 72 -236 136 -292 q 8 -81 8 -181 l 8 -36 l 244 -36 l 244 -67 q 253 -89 244 -89 q 261 -64 261 -89 l 261 61 l 244 61 q 199 6 228 25 q 138 -14 171 -14 q 43 38 78 -14 q 8 178 8 89 l 8 540 q 42 674 8 626 q 135 722 75 722 q 198 704 169 722 q 244 647 226 686 l 261 647 l 261 708 l 497 708 l 497 -81 m 261 506 q 251 514 257 514 q 244 501 244 514 l 244 213 q 251 193 244 193 q 261 203 257 193 l 261 506 m 126 860 q 147 934 126 907 q 224 961 167 961 q 302 933 281 961 q 324 858 324 906 q 303 784 324 811 q 225 757 282 757 q 147 784 168 757 q 126 860 126 811 z "},"Ģ":{"ha":533,"x_min":8,"x_max":525,"o":"m 258 544 l 525 544 l 525 0 l 356 0 l 356 78 l 339 78 q 289 10 328 33 q 203 -14 250 -14 q 133 1 168 -14 q 71 47 99 15 q 26 126 43 78 q 8 244 8 175 l 8 729 q 74 921 8 856 q 263 986 139 986 q 457 919 389 986 q 525 729 525 853 l 525 572 l 275 572 l 275 747 q 267 769 275 769 q 258 747 258 769 l 258 544 m 258 225 q 267 203 258 203 q 275 225 275 203 l 275 383 l 258 383 l 258 225 m 188 -56 l 376 -56 l 285 -246 l 165 -246 l 188 -56 z "},"ģ":{"ha":506,"x_min":8,"x_max":497,"o":"m 497 -81 q 435 -237 497 -182 q 254 -292 372 -292 q 72 -236 136 -292 q 8 -81 8 -181 l 8 -36 l 244 -36 l 244 -67 q 253 -89 244 -89 q 261 -64 261 -89 l 261 61 l 244 61 q 199 6 228 25 q 138 -14 171 -14 q 43 38 78 -14 q 8 178 8 89 l 8 540 q 42 674 8 626 q 135 722 75 722 q 198 704 169 722 q 244 647 226 686 l 261 647 l 261 708 l 497 708 l 497 -81 m 261 506 q 251 514 257 514 q 244 501 244 514 l 244 213 q 251 193 244 193 q 261 203 257 193 l 261 506 m 351 764 l 163 764 l 256 953 l 375 953 l 351 764 z "},"Ĥ":{"ha":533,"x_min":8,"x_max":525,"o":"m 525 972 l 525 0 l 275 0 l 275 390 l 258 390 l 258 0 l 8 0 l 8 972 l 258 972 l 258 607 l 275 607 l 275 972 l 525 972 m 128 1028 l 183 1218 l 350 1218 l 406 1028 l 278 1028 l 271 1092 l 263 1092 l 256 1028 l 128 1028 z "},"ĥ":{"ha":506,"x_min":-17,"x_max":497,"o":"m 8 1000 l 244 1000 l 244 647 l 261 647 q 371 722 297 722 q 419 713 396 722 q 459 681 442 703 q 487 624 476 658 q 497 540 497 589 l 497 0 l 261 0 l 261 503 q 254 514 261 514 q 244 507 249 514 l 244 0 l 8 0 l 8 1000 m -17 1042 l 39 1232 l 206 1232 l 261 1042 l 133 1042 l 126 1106 l 118 1106 l 111 1042 l -17 1042 z "},"Ħ":{"ha":533,"x_min":-19,"x_max":553,"o":"m 525 972 l 525 819 l 553 819 l 553 681 l 525 681 l 525 0 l 275 0 l 275 390 l 258 390 l 258 0 l 8 0 l 8 681 l -19 681 l -19 819 l 8 819 l 8 972 l 258 972 l 258 819 l 275 819 l 275 972 l 525 972 m 275 607 l 275 681 l 258 681 l 258 607 l 275 607 z "},"ħ":{"ha":506,"x_min":-35,"x_max":497,"o":"m 8 1000 l 244 1000 l 244 647 l 261 647 q 371 722 297 722 q 419 713 396 722 q 459 681 442 703 q 487 624 476 658 q 497 540 497 589 l 497 0 l 261 0 l 261 503 q 254 514 261 514 q 244 507 249 514 l 244 0 l 8 0 l 8 1000 m 313 776 l -35 776 l -35 938 l 313 938 l 313 776 z "},"Ĩ":{"ha":267,"x_min":-3,"x_max":268,"o":"m 258 972 l 258 0 l 8 0 l 8 972 l 258 972 m 268 1211 q 251 1072 268 1115 q 199 1028 233 1028 q 163 1035 181 1028 q 128 1051 144 1043 l 122 1054 q 95 1067 107 1061 q 74 1072 83 1072 q 51 1035 51 1072 l 51 1033 l -3 1033 l -3 1036 q 16 1171 -3 1124 q 71 1218 35 1218 q 103 1211 86 1218 q 138 1196 121 1204 l 143 1193 q 171 1181 158 1186 q 193 1176 183 1176 q 215 1211 215 1176 l 215 1214 l 268 1214 l 268 1211 z "},"ĩ":{"ha":256,"x_min":-8,"x_max":263,"o":"m 246 708 l 246 0 l 10 0 l 10 708 l 246 708 m 263 947 q 245 808 263 851 q 193 764 228 764 q 157 772 175 764 q 122 788 139 779 l 117 790 q 90 803 101 797 q 68 808 78 808 q 46 771 46 808 l 46 769 l -8 769 l -8 772 q 10 907 -8 860 q 65 954 29 954 q 98 947 81 954 q 132 932 115 940 l 138 929 q 165 917 153 922 q 188 913 178 913 q 210 947 210 913 l 210 950 l 263 950 l 263 947 z "},"Ī":{"ha":267,"x_min":-19,"x_max":286,"o":"m 258 972 l 258 0 l 8 0 l 8 972 l 258 972 m 286 1033 l -19 1033 l -19 1214 l 286 1214 l 286 1033 z "},"ī":{"ha":256,"x_min":-25,"x_max":281,"o":"m 246 708 l 246 0 l 10 0 l 10 708 l 246 708 m 281 769 l -25 769 l -25 950 l 281 950 l 281 769 z "},"Ĭ":{"ha":267,"x_min":-36,"x_max":303,"o":"m 258 972 l 258 0 l 8 0 l 8 972 l 258 972 m 103 1218 q 133 1167 103 1167 q 164 1218 164 1167 l 303 1218 q 260 1071 303 1114 q 133 1028 217 1028 q 7 1071 50 1028 q -36 1218 -36 1114 l 103 1218 z "},"ĭ":{"ha":256,"x_min":-42,"x_max":297,"o":"m 246 708 l 246 0 l 10 0 l 10 708 l 246 708 m 97 954 q 128 903 97 903 q 158 954 158 903 l 297 954 q 254 807 297 850 q 128 764 211 764 q 1 807 44 764 q -42 954 -42 850 l 97 954 z "},"Į":{"ha":267,"x_min":8,"x_max":258,"o":"m 258 972 l 258 0 l 8 0 l 8 972 l 258 972 m 257 11 l 257 1 q 207 -22 225 1 q 189 -69 189 -44 q 201 -103 189 -89 q 238 -117 213 -117 q 247 -117 242 -117 q 257 -115 251 -117 l 257 -233 q 215 -242 235 -240 q 178 -244 196 -244 q 70 -211 107 -244 q 33 -133 33 -178 q 47 -83 33 -108 q 88 -36 60 -57 q 158 -2 115 -15 q 257 11 200 11 z "},"į":{"ha":256,"x_min":1,"x_max":254,"o":"m 1 860 q 35 945 1 918 q 126 972 68 972 q 219 945 185 972 q 254 860 254 918 q 220 774 254 801 q 128 747 186 747 q 35 774 69 747 q 1 860 1 801 m 246 708 l 246 0 l 10 0 l 10 708 l 246 708 m 239 -3 l 239 -12 q 189 -35 207 -12 q 171 -83 171 -58 q 183 -117 171 -103 q 219 -131 194 -131 q 228 -131 224 -131 q 239 -129 233 -131 l 239 -247 q 197 -256 217 -254 q 160 -258 178 -258 q 52 -225 89 -258 q 15 -147 15 -192 q 28 -97 15 -122 q 69 -50 42 -71 q 140 -16 97 -29 q 239 -3 182 -3 z "},"İ":{"ha":267,"x_min":8,"x_max":258,"o":"m 258 972 l 258 0 l 8 0 l 8 972 l 258 972 m 35 1124 q 55 1198 35 1171 q 132 1225 75 1225 q 210 1197 189 1225 q 232 1122 232 1169 q 211 1048 232 1075 q 133 1021 190 1021 q 56 1048 76 1021 q 35 1124 35 1075 z "},"Ĳ":{"ha":800,"x_min":8,"x_max":792,"o":"m 258 972 l 258 0 l 8 0 l 8 972 l 258 972 m 792 972 l 792 244 q 724 53 792 119 q 528 -14 656 -14 q 338 52 401 -14 q 275 244 275 118 l 275 465 l 525 465 l 525 225 q 533 203 525 203 q 542 225 542 203 l 542 972 l 792 972 z "},"ĳ":{"ha":510,"x_min":1,"x_max":508,"o":"m 1 860 q 35 945 1 918 q 126 972 68 972 q 219 945 185 972 q 254 860 254 918 q 220 774 254 801 q 128 747 186 747 q 35 774 69 747 q 1 860 1 801 m 246 708 l 246 0 l 10 0 l 10 708 l 246 708 m 256 861 q 289 947 256 919 q 381 974 322 974 q 474 947 439 974 q 508 861 508 919 q 474 776 508 803 q 382 749 440 749 q 290 776 324 749 q 256 861 256 803 m 500 -40 q 444 -231 500 -169 q 294 -292 389 -292 q 200 -279 250 -292 l 200 -76 q 209 -78 204 -78 q 218 -78 214 -78 q 251 -70 238 -78 q 264 -43 264 -62 l 264 708 l 500 708 l 500 -40 z "},"Ĵ":{"ha":533,"x_min":8,"x_max":539,"o":"m 525 972 l 525 244 q 457 53 525 119 q 261 -14 389 -14 q 72 52 135 -14 q 8 244 8 118 l 8 465 l 258 465 l 258 225 q 267 203 258 203 q 275 225 275 203 l 275 972 l 525 972 m 261 1028 l 317 1218 l 483 1218 l 539 1028 l 411 1028 l 404 1092 l 396 1092 l 389 1028 l 261 1028 z "},"ĵ":{"ha":254,"x_min":-56,"x_max":264,"o":"m 244 -40 q 189 -231 244 -169 q 39 -292 133 -292 q -56 -279 -6 -292 l -56 -76 q -47 -78 -51 -78 q -37 -78 -42 -78 q -5 -70 -18 -78 q 8 -43 8 -62 l 8 708 l 244 708 l 244 -40 m -14 764 l 42 954 l 208 954 l 264 764 l 136 764 l 129 828 l 121 828 l 114 764 l -14 764 z "},"Ķ":{"ha":543,"x_min":8,"x_max":539,"o":"m 258 593 l 275 593 l 275 972 l 539 972 l 481 486 l 539 0 l 275 0 l 275 378 l 258 378 l 258 0 l 8 0 l 8 972 l 258 972 l 258 593 m 186 -56 l 375 -56 l 283 -246 l 164 -246 l 186 -56 z "},"ķ":{"ha":494,"x_min":8,"x_max":508,"o":"m 244 485 l 261 485 l 269 708 l 500 708 l 446 372 l 508 0 l 278 0 l 261 256 l 244 256 l 244 0 l 8 0 l 8 1000 l 244 1000 l 244 485 m 179 -56 l 368 -56 l 276 -246 l 157 -246 l 179 -56 z "},"ĸ":{"ha":494,"x_min":8,"x_max":508,"o":"m 244 485 l 261 485 l 269 708 l 500 708 l 446 372 l 508 0 l 278 0 l 261 256 l 244 256 l 244 0 l 8 0 l 8 708 l 244 708 l 244 485 z "},"Ĺ":{"ha":374,"x_min":8,"x_max":369,"o":"m 258 972 l 258 217 l 369 217 l 369 0 l 8 0 l 8 972 l 258 972 m 51 1028 l 92 1218 l 272 1218 l 204 1028 l 51 1028 z "},"ĺ":{"ha":253,"x_min":8,"x_max":265,"o":"m 8 1000 l 244 1000 l 244 0 l 8 0 l 8 1000 m 44 1056 l 85 1246 l 265 1246 l 197 1056 l 44 1056 z "},"Ļ":{"ha":374,"x_min":8,"x_max":369,"o":"m 258 972 l 258 217 l 369 217 l 369 0 l 8 0 l 8 972 l 258 972 m 101 -56 l 290 -56 l 199 -246 l 79 -246 l 101 -56 z "},"ļ":{"ha":253,"x_min":8,"x_max":244,"o":"m 8 1000 l 244 1000 l 244 0 l 8 0 l 8 1000 m 35 -56 l 224 -56 l 132 -246 l 13 -246 l 35 -56 z "},"Ľ":{"ha":388,"x_min":8,"x_max":464,"o":"m 258 972 l 258 217 l 369 217 l 369 0 l 8 0 l 8 972 l 258 972 m 303 972 l 464 972 l 365 629 l 274 629 l 303 972 z "},"ľ":{"ha":253,"x_min":8,"x_max":450,"o":"m 8 1000 l 244 1000 l 244 0 l 8 0 l 8 1000 m 289 1000 l 450 1000 l 351 657 l 260 657 l 289 1000 z "},"Ŀ":{"ha":374,"x_min":8,"x_max":472,"o":"m 258 972 l 258 217 l 369 217 l 369 0 l 8 0 l 8 972 l 258 972 m 275 521 q 295 595 275 568 q 372 622 315 622 q 451 594 429 622 q 472 519 472 567 q 451 445 472 472 q 374 418 431 418 q 296 445 317 418 q 275 521 275 472 z "},"ŀ":{"ha":253,"x_min":8,"x_max":458,"o":"m 8 1000 l 244 1000 l 244 0 l 8 0 l 8 1000 m 261 499 q 281 573 261 546 q 358 600 301 600 q 437 572 415 600 q 458 497 458 544 q 438 423 458 450 q 360 396 417 396 q 282 423 303 396 q 261 499 261 450 z "},"Ń":{"ha":556,"x_min":8,"x_max":547,"o":"m 547 972 l 547 0 l 279 0 l 215 528 l 201 528 l 258 0 l 8 0 l 8 972 l 276 972 l 346 439 l 360 439 l 297 972 l 547 972 m 194 1028 l 235 1218 l 415 1218 l 347 1028 l 194 1028 z "},"ń":{"ha":506,"x_min":8,"x_max":497,"o":"m 8 708 l 244 708 l 244 647 l 261 647 q 371 722 300 722 q 419 713 396 722 q 459 681 442 703 q 487 624 476 658 q 497 540 497 589 l 497 0 l 261 0 l 261 506 q 254 517 261 517 q 244 510 249 517 l 244 0 l 8 0 l 8 708 m 172 764 l 213 954 l 393 954 l 325 764 l 172 764 z "},"Ņ":{"ha":556,"x_min":8,"x_max":547,"o":"m 547 972 l 547 0 l 279 0 l 215 528 l 201 528 l 258 0 l 8 0 l 8 972 l 276 972 l 346 439 l 360 439 l 297 972 l 547 972 m 190 -56 l 379 -56 l 288 -246 l 168 -246 l 190 -56 z "},"ņ":{"ha":506,"x_min":8,"x_max":497,"o":"m 8 708 l 244 708 l 244 647 l 261 647 q 371 722 300 722 q 419 713 396 722 q 459 681 442 703 q 487 624 476 658 q 497 540 497 589 l 497 0 l 261 0 l 261 506 q 254 517 261 517 q 244 510 249 517 l 244 0 l 8 0 l 8 708 m 175 -56 l 364 -56 l 272 -246 l 153 -246 l 175 -56 z "},"Ň":{"ha":556,"x_min":8,"x_max":547,"o":"m 547 972 l 547 0 l 279 0 l 215 528 l 201 528 l 258 0 l 8 0 l 8 972 l 276 972 l 346 439 l 360 439 l 297 972 l 547 972 m 415 1219 l 360 1029 l 193 1029 l 138 1219 l 265 1219 l 272 1156 l 281 1156 l 288 1219 l 415 1219 z "},"ň":{"ha":506,"x_min":8,"x_max":497,"o":"m 8 708 l 244 708 l 244 647 l 261 647 q 371 722 300 722 q 419 713 396 722 q 459 681 442 703 q 487 624 476 658 q 497 540 497 589 l 497 0 l 261 0 l 261 506 q 254 517 261 517 q 244 510 249 517 l 244 0 l 8 0 l 8 708 m 393 956 l 338 765 l 171 765 l 115 956 l 243 956 l 250 892 l 258 892 l 265 956 l 393 956 z "},"ŉ":{"ha":506,"x_min":-153,"x_max":497,"o":"m 8 708 l 244 708 l 244 647 l 261 647 q 371 722 300 722 q 419 713 396 722 q 459 681 442 703 q 487 624 476 658 q 497 540 497 589 l 497 0 l 261 0 l 261 506 q 254 517 261 517 q 244 510 249 517 l 244 0 l 8 0 l 8 708 m -124 972 l 65 972 l -33 629 l -153 629 l -124 972 z "},"Ŋ":{"ha":557,"x_min":10,"x_max":549,"o":"m 549 972 l 549 -42 q 493 -232 549 -171 q 343 -293 438 -293 q 249 -281 299 -293 l 249 -78 q 258 -79 251 -79 q 281 -44 281 -79 l 281 0 l 217 528 l 203 528 l 260 0 l 10 0 l 10 972 l 278 972 l 347 439 l 361 439 l 299 972 l 549 972 z "},"ŋ":{"ha":506,"x_min":8,"x_max":497,"o":"m 497 -40 q 442 -231 497 -169 q 292 -292 386 -292 q 197 -279 247 -292 l 197 -76 q 206 -78 201 -78 q 215 -78 211 -78 q 248 -70 235 -78 q 261 -43 261 -62 l 261 506 q 254 517 261 517 q 244 510 249 517 l 244 0 l 8 0 l 8 708 l 244 708 l 244 647 l 261 647 q 371 722 300 722 q 419 713 396 722 q 459 681 442 703 q 487 624 476 658 q 497 540 497 589 l 497 -40 z "},"Ō":{"ha":533,"x_min":8,"x_max":525,"o":"m 8 729 q 74 921 8 856 q 263 986 139 986 q 457 919 389 986 q 525 729 525 853 l 525 244 q 457 53 525 119 q 263 -14 389 -14 q 74 52 139 -14 q 8 244 8 118 l 8 729 m 258 225 q 267 203 258 203 q 275 225 275 203 l 275 747 q 267 769 275 769 q 258 747 258 769 l 258 225 m 419 1033 l 114 1033 l 114 1214 l 419 1214 l 419 1033 z "},"ō":{"ha":506,"x_min":8,"x_max":497,"o":"m 8 483 q 69 655 8 588 q 250 722 129 722 q 357 704 311 722 q 434 654 403 686 q 481 578 465 622 q 497 483 497 535 l 497 225 q 481 130 497 174 q 434 54 465 86 q 357 4 403 22 q 250 -14 311 -14 q 69 53 129 -14 q 8 225 8 121 l 8 483 m 244 211 q 253 189 244 189 q 261 211 261 189 l 261 497 q 253 519 261 519 q 244 497 244 519 l 244 211 m 403 769 l 97 769 l 97 950 l 403 950 l 403 769 z "},"Ŏ":{"ha":533,"x_min":8,"x_max":525,"o":"m 8 729 q 74 921 8 856 q 263 986 139 986 q 457 919 389 986 q 525 729 525 853 l 525 244 q 457 53 525 119 q 263 -14 389 -14 q 74 52 139 -14 q 8 244 8 118 l 8 729 m 258 225 q 267 203 258 203 q 275 225 275 203 l 275 747 q 267 769 275 769 q 258 747 258 769 l 258 225 m 236 1218 q 267 1167 236 1167 q 297 1218 297 1167 l 436 1218 q 393 1071 436 1114 q 267 1028 350 1028 q 140 1071 183 1028 q 97 1218 97 1114 l 236 1218 z "},"ŏ":{"ha":506,"x_min":8,"x_max":497,"o":"m 8 483 q 69 655 8 588 q 250 722 129 722 q 357 704 311 722 q 434 654 403 686 q 481 578 465 622 q 497 483 497 535 l 497 225 q 481 130 497 174 q 434 54 465 86 q 357 4 403 22 q 250 -14 311 -14 q 69 53 129 -14 q 8 225 8 121 l 8 483 m 244 211 q 253 189 244 189 q 261 211 261 189 l 261 497 q 253 519 261 519 q 244 497 244 519 l 244 211 m 219 954 q 250 903 219 903 q 281 954 281 903 l 419 954 q 376 807 419 850 q 250 764 333 764 q 124 807 167 764 q 81 954 81 850 l 219 954 z "},"Ő":{"ha":533,"x_min":8,"x_max":525,"o":"m 8 729 q 74 921 8 856 q 263 986 139 986 q 457 919 389 986 q 525 729 525 853 l 525 244 q 457 53 525 119 q 263 -14 389 -14 q 74 52 139 -14 q 8 244 8 118 l 8 729 m 258 225 q 267 203 258 203 q 275 225 275 203 l 275 747 q 267 769 275 769 q 258 747 258 769 l 258 225 m 113 1028 l 153 1218 l 292 1218 l 225 1028 l 113 1028 m 269 1028 l 310 1218 l 449 1218 l 382 1028 l 269 1028 z "},"ő":{"ha":506,"x_min":8,"x_max":497,"o":"m 8 483 q 69 655 8 588 q 250 722 129 722 q 357 704 311 722 q 434 654 403 686 q 481 578 465 622 q 497 483 497 535 l 497 225 q 481 130 497 174 q 434 54 465 86 q 357 4 403 22 q 250 -14 311 -14 q 69 53 129 -14 q 8 225 8 121 l 8 483 m 244 211 q 253 189 244 189 q 261 211 261 189 l 261 497 q 253 519 261 519 q 244 497 244 519 l 244 211 m 96 764 l 136 954 l 275 954 l 208 764 l 96 764 m 253 764 l 293 954 l 432 954 l 365 764 l 253 764 z "},"Ŕ":{"ha":533,"x_min":8,"x_max":539,"o":"m 264 972 q 457 909 389 972 q 525 713 525 846 l 525 706 q 511 599 525 644 q 476 524 497 554 q 431 478 456 493 q 383 464 406 464 l 383 447 q 431 431 406 447 q 476 383 456 414 q 511 308 497 353 q 525 208 525 264 l 525 197 q 527 93 525 142 q 539 0 529 44 l 289 0 q 277 94 279 46 q 275 200 275 143 l 275 325 q 274 344 275 340 q 261 347 272 347 l 258 347 l 258 0 l 8 0 l 8 972 l 264 972 m 258 564 l 261 564 q 274 567 272 564 q 275 586 275 571 l 275 735 q 274 752 275 749 q 261 756 272 756 l 258 756 l 258 564 m 185 1028 l 225 1218 l 406 1218 l 338 1028 l 185 1028 z "},"ŕ":{"ha":397,"x_min":8,"x_max":389,"o":"m 244 619 l 250 619 q 295 693 264 664 q 371 722 326 722 q 389 721 383 722 l 389 486 q 370 488 379 488 q 350 489 361 489 q 269 460 293 489 q 244 375 244 432 l 244 0 l 8 0 l 8 708 l 244 708 l 244 619 m 118 764 l 158 954 l 339 954 l 271 764 l 118 764 z "},"Ŗ":{"ha":533,"x_min":8,"x_max":539,"o":"m 264 972 q 457 909 389 972 q 525 713 525 846 l 525 706 q 511 599 525 644 q 476 524 497 554 q 431 478 456 493 q 383 464 406 464 l 383 447 q 431 431 406 447 q 476 383 456 414 q 511 308 497 353 q 525 208 525 264 l 525 197 q 527 93 525 142 q 539 0 529 44 l 289 0 q 277 94 279 46 q 275 200 275 143 l 275 325 q 274 344 275 340 q 261 347 272 347 l 258 347 l 258 0 l 8 0 l 8 972 l 264 972 m 258 564 l 261 564 q 274 567 272 564 q 275 586 275 571 l 275 735 q 274 752 275 749 q 261 756 272 756 l 258 756 l 258 564 m 194 -56 l 383 -56 l 292 -246 l 172 -246 l 194 -56 z "},"ŗ":{"ha":397,"x_min":8,"x_max":389,"o":"m 244 619 l 250 619 q 295 693 264 664 q 371 722 326 722 q 389 721 383 722 l 389 486 q 370 488 379 488 q 350 489 361 489 q 269 460 293 489 q 244 375 244 432 l 244 0 l 8 0 l 8 708 l 244 708 l 244 619 m 47 -56 l 236 -56 l 144 -246 l 25 -246 l 47 -56 z "},"Ř":{"ha":533,"x_min":8,"x_max":539,"o":"m 264 972 q 457 909 389 972 q 525 713 525 846 l 525 706 q 511 599 525 644 q 476 524 497 554 q 431 478 456 493 q 383 464 406 464 l 383 447 q 431 431 406 447 q 476 383 456 414 q 511 308 497 353 q 525 208 525 264 l 525 197 q 527 93 525 142 q 539 0 529 44 l 289 0 q 277 94 279 46 q 275 200 275 143 l 275 325 q 274 344 275 340 q 261 347 272 347 l 258 347 l 258 0 l 8 0 l 8 972 l 264 972 m 258 564 l 261 564 q 274 567 272 564 q 275 586 275 571 l 275 735 q 274 752 275 749 q 261 756 272 756 l 258 756 l 258 564 m 406 1219 l 350 1029 l 183 1029 l 128 1219 l 256 1219 l 263 1156 l 271 1156 l 278 1219 l 406 1219 z "},"ř":{"ha":397,"x_min":8,"x_max":389,"o":"m 244 619 l 250 619 q 295 693 264 664 q 371 722 326 722 q 389 721 383 722 l 389 486 q 370 488 379 488 q 350 489 361 489 q 269 460 293 489 q 244 375 244 432 l 244 0 l 8 0 l 8 708 l 244 708 l 244 619 m 339 956 l 283 765 l 117 765 l 61 956 l 189 956 l 196 892 l 204 892 l 211 956 l 339 956 z "},"Ś":{"ha":533,"x_min":8,"x_max":525,"o":"m 275 639 l 275 747 q 267 769 275 769 q 258 747 258 769 l 258 669 q 260 644 258 654 q 273 623 263 633 q 306 599 283 613 q 368 563 328 585 l 406 542 q 465 499 442 522 q 501 443 488 475 q 519 367 514 411 q 525 263 525 324 l 525 244 q 457 53 525 119 q 263 -14 389 -14 q 73 52 138 -14 q 8 244 8 118 l 8 333 l 258 333 l 258 225 q 267 203 258 203 q 275 224 275 203 l 275 306 q 273 331 275 321 q 262 350 271 340 q 233 372 253 360 q 176 406 213 385 l 132 431 q 72 476 96 451 q 33 533 47 500 q 14 611 19 567 q 8 717 8 656 l 8 729 q 74 921 8 856 q 263 986 139 986 q 457 919 389 986 q 525 729 525 853 l 525 639 l 275 639 m 185 1028 l 225 1218 l 406 1218 l 338 1028 l 185 1028 z "},"ś":{"ha":506,"x_min":8,"x_max":497,"o":"m 261 467 l 261 497 q 253 518 261 518 q 244 497 244 518 l 244 496 q 251 467 244 476 q 282 447 258 458 l 381 399 q 467 330 439 369 q 496 219 496 290 l 496 197 q 480 117 496 156 q 433 50 464 79 q 355 3 401 21 q 249 -14 308 -14 q 144 3 189 -14 q 69 52 100 21 q 24 125 39 83 q 8 214 8 167 l 8 242 l 244 242 l 244 214 q 253 193 244 193 q 261 214 261 193 l 261 215 q 253 244 261 235 q 218 265 246 253 l 118 311 q 34 378 58 339 q 10 489 10 418 l 10 511 q 25 591 10 553 q 71 658 40 629 q 147 705 101 688 q 251 722 192 722 q 357 704 311 722 q 434 656 403 686 q 481 584 465 625 q 497 496 497 543 l 497 467 l 261 467 m 168 764 l 208 954 l 389 954 l 321 764 l 168 764 z "},"Ŝ":{"ha":533,"x_min":8,"x_max":525,"o":"m 275 639 l 275 747 q 267 769 275 769 q 258 747 258 769 l 258 669 q 260 644 258 654 q 273 623 263 633 q 306 599 283 613 q 368 563 328 585 l 406 542 q 465 499 442 522 q 501 443 488 475 q 519 367 514 411 q 525 263 525 324 l 525 244 q 457 53 525 119 q 263 -14 389 -14 q 73 52 138 -14 q 8 244 8 118 l 8 333 l 258 333 l 258 225 q 267 203 258 203 q 275 224 275 203 l 275 306 q 273 331 275 321 q 262 350 271 340 q 233 372 253 360 q 176 406 213 385 l 132 431 q 72 476 96 451 q 33 533 47 500 q 14 611 19 567 q 8 717 8 656 l 8 729 q 74 921 8 856 q 263 986 139 986 q 457 919 389 986 q 525 729 525 853 l 525 639 l 275 639 m 128 1028 l 183 1218 l 350 1218 l 406 1028 l 278 1028 l 271 1092 l 263 1092 l 256 1028 l 128 1028 z "},"ŝ":{"ha":506,"x_min":8,"x_max":497,"o":"m 261 467 l 261 497 q 253 518 261 518 q 244 497 244 518 l 244 496 q 251 467 244 476 q 282 447 258 458 l 381 399 q 467 330 439 369 q 496 219 496 290 l 496 197 q 480 117 496 156 q 433 50 464 79 q 355 3 401 21 q 249 -14 308 -14 q 144 3 189 -14 q 69 52 100 21 q 24 125 39 83 q 8 214 8 167 l 8 242 l 244 242 l 244 214 q 253 193 244 193 q 261 214 261 193 l 261 215 q 253 244 261 235 q 218 265 246 253 l 118 311 q 34 378 58 339 q 10 489 10 418 l 10 511 q 25 591 10 553 q 71 658 40 629 q 147 705 101 688 q 251 722 192 722 q 357 704 311 722 q 434 656 403 686 q 481 584 465 625 q 497 496 497 543 l 497 467 l 261 467 m 111 764 l 167 954 l 333 954 l 389 764 l 261 764 l 254 828 l 246 828 l 239 764 l 111 764 z "},"Ş":{"ha":533,"x_min":8,"x_max":525,"o":"m 275 639 l 275 747 q 267 769 275 769 q 258 747 258 769 l 258 669 q 260 644 258 654 q 273 623 263 633 q 306 599 283 613 q 368 563 328 585 l 406 542 q 465 499 442 522 q 501 443 488 475 q 519 367 514 411 q 525 263 525 324 l 525 244 q 457 53 525 119 q 263 -14 389 -14 q 73 52 138 -14 q 8 244 8 118 l 8 333 l 258 333 l 258 225 q 267 203 258 203 q 275 224 275 203 l 275 306 q 273 331 275 321 q 262 350 271 340 q 233 372 253 360 q 176 406 213 385 l 132 431 q 72 476 96 451 q 33 533 47 500 q 14 611 19 567 q 8 717 8 656 l 8 729 q 74 921 8 856 q 263 986 139 986 q 457 919 389 986 q 525 729 525 853 l 525 639 l 275 639 m 251 0 l 343 0 l 336 -69 q 435 -97 403 -69 q 468 -161 468 -125 q 428 -233 468 -200 q 307 -267 389 -267 q 258 -264 285 -267 q 201 -256 231 -261 l 201 -168 q 240 -172 222 -172 q 283 -165 265 -172 q 300 -147 300 -158 q 281 -131 300 -136 q 229 -125 261 -125 l 251 0 z "},"ş":{"ha":506,"x_min":8,"x_max":497,"o":"m 261 467 l 261 497 q 253 518 261 518 q 244 497 244 518 l 244 496 q 251 467 244 476 q 282 447 258 458 l 381 399 q 467 330 439 369 q 496 219 496 290 l 496 197 q 480 117 496 156 q 433 50 464 79 q 355 3 401 21 q 249 -14 308 -14 q 144 3 189 -14 q 69 52 100 21 q 24 125 39 83 q 8 214 8 167 l 8 242 l 244 242 l 244 214 q 253 193 244 193 q 261 214 261 193 l 261 215 q 253 244 261 235 q 218 265 246 253 l 118 311 q 34 378 58 339 q 10 489 10 418 l 10 511 q 25 591 10 553 q 71 658 40 629 q 147 705 101 688 q 251 722 192 722 q 357 704 311 722 q 434 656 403 686 q 481 584 465 625 q 497 496 497 543 l 497 467 l 261 467 m 206 0 l 297 0 l 290 -69 q 390 -97 357 -69 q 422 -161 422 -125 q 383 -233 422 -200 q 261 -267 343 -267 q 212 -264 239 -267 q 156 -256 185 -261 l 156 -168 q 194 -172 176 -172 q 237 -165 219 -172 q 254 -147 254 -158 q 235 -131 254 -136 q 183 -125 215 -125 l 206 0 z "},"Ţ":{"ha":511,"x_min":6,"x_max":506,"o":"m 506 756 l 381 756 l 381 0 l 131 0 l 131 756 l 6 756 l 6 972 l 506 972 l 506 756 m 211 11 l 303 11 l 296 -58 q 395 -86 363 -58 q 428 -150 428 -114 q 388 -222 428 -189 q 267 -256 349 -256 q 217 -253 244 -256 q 161 -244 190 -250 l 161 -157 q 200 -161 182 -161 q 242 -154 225 -161 q 260 -136 260 -147 q 240 -119 260 -125 q 189 -114 221 -114 l 211 11 z "},"ţ":{"ha":396,"x_min":0,"x_max":400,"o":"m 0 708 l 56 708 l 56 861 l 292 875 l 292 708 l 390 708 l 390 506 l 292 506 l 292 250 q 310 207 292 218 q 353 196 329 196 q 372 197 363 196 q 390 200 381 199 l 390 -1 q 269 -14 326 -14 q 181 -2 221 -14 q 114 39 142 10 q 71 116 86 68 q 56 236 56 164 l 56 506 l 0 506 l 0 708 m 183 0 l 275 0 l 268 -69 q 367 -97 335 -69 q 400 -161 400 -125 q 360 -233 400 -200 q 239 -267 321 -267 q 190 -264 217 -267 q 133 -256 163 -261 l 133 -168 q 172 -172 154 -172 q 215 -165 197 -172 q 232 -147 232 -158 q 213 -131 232 -136 q 161 -125 193 -125 l 183 0 z "},"Ť":{"ha":511,"x_min":6,"x_max":506,"o":"m 506 756 l 381 756 l 381 0 l 131 0 l 131 756 l 6 756 l 6 972 l 506 972 l 506 756 m 394 1219 l 339 1029 l 172 1029 l 117 1219 l 244 1219 l 251 1156 l 260 1156 l 267 1219 l 394 1219 z "},"ť":{"ha":396,"x_min":0,"x_max":486,"o":"m 0 708 l 56 708 l 56 861 l 292 875 l 292 708 l 390 708 l 390 506 l 292 506 l 292 250 q 310 207 292 218 q 353 196 329 196 q 372 197 363 196 q 390 200 381 199 l 390 -1 q 269 -14 326 -14 q 181 -2 221 -14 q 114 39 142 10 q 71 116 86 68 q 56 236 56 164 l 56 506 l 0 506 l 0 708 m 338 986 l 486 986 l 414 768 l 308 768 l 338 986 z "},"Ŧ":{"ha":511,"x_min":6,"x_max":506,"o":"m 506 756 l 381 756 l 381 0 l 131 0 l 131 756 l 6 756 l 6 972 l 506 972 l 506 756 m 429 357 l 82 357 l 82 518 l 429 518 l 429 357 z "},"ŧ":{"ha":396,"x_min":0,"x_max":390,"o":"m 0 708 l 56 708 l 56 861 l 292 875 l 292 708 l 390 708 l 390 506 l 292 506 l 292 250 q 310 207 292 218 q 353 196 329 196 q 372 197 363 196 q 390 200 381 199 l 390 -1 q 269 -14 326 -14 q 181 -2 221 -14 q 114 39 142 10 q 71 116 86 68 q 56 236 56 164 l 56 506 l 0 506 l 0 708 m 390 324 l 0 324 l 0 457 l 390 457 l 390 324 z "},"Ũ":{"ha":533,"x_min":8,"x_max":525,"o":"m 258 972 l 258 225 q 267 203 258 203 q 275 225 275 203 l 275 972 l 525 972 l 525 244 q 457 53 525 119 q 263 -14 389 -14 q 73 52 138 -14 q 8 244 8 118 l 8 972 l 258 972 m 401 1211 q 384 1072 401 1115 q 332 1028 367 1028 q 296 1035 314 1028 q 261 1051 278 1043 l 256 1054 q 228 1067 240 1061 q 207 1072 217 1072 q 185 1035 185 1072 l 185 1033 l 131 1033 l 131 1036 q 149 1171 131 1124 q 204 1218 168 1218 q 237 1211 219 1218 q 271 1196 254 1204 l 276 1193 q 304 1181 292 1186 q 326 1176 317 1176 q 349 1211 349 1176 l 349 1214 l 401 1214 l 401 1211 z "},"ũ":{"ha":506,"x_min":8,"x_max":497,"o":"m 497 0 l 261 0 l 261 61 l 244 61 q 135 -14 206 -14 q 46 28 83 -14 q 8 168 8 71 l 8 708 l 244 708 l 244 197 q 251 186 244 186 q 261 193 257 186 l 261 708 l 497 708 l 497 0 m 385 947 q 367 808 385 851 q 315 764 350 764 q 279 772 297 764 q 244 788 261 779 l 239 790 q 212 803 224 797 q 190 808 200 808 q 168 771 168 808 l 168 769 l 114 769 l 114 772 q 133 907 114 860 q 188 954 151 954 q 220 947 203 954 q 254 932 238 940 l 260 929 q 288 917 275 922 q 310 913 300 913 q 332 947 332 913 l 332 950 l 385 950 l 385 947 z "},"Ū":{"ha":533,"x_min":8,"x_max":525,"o":"m 258 972 l 258 225 q 267 203 258 203 q 275 225 275 203 l 275 972 l 525 972 l 525 244 q 457 53 525 119 q 263 -14 389 -14 q 73 52 138 -14 q 8 244 8 118 l 8 972 l 258 972 m 419 1033 l 114 1033 l 114 1214 l 419 1214 l 419 1033 z "},"ū":{"ha":506,"x_min":8,"x_max":497,"o":"m 497 0 l 261 0 l 261 61 l 244 61 q 135 -14 206 -14 q 46 28 83 -14 q 8 168 8 71 l 8 708 l 244 708 l 244 197 q 251 186 244 186 q 261 193 257 186 l 261 708 l 497 708 l 497 0 m 403 769 l 97 769 l 97 950 l 403 950 l 403 769 z "},"Ŭ":{"ha":533,"x_min":8,"x_max":525,"o":"m 258 972 l 258 225 q 267 203 258 203 q 275 225 275 203 l 275 972 l 525 972 l 525 244 q 457 53 525 119 q 263 -14 389 -14 q 73 52 138 -14 q 8 244 8 118 l 8 972 l 258 972 m 236 1218 q 267 1167 236 1167 q 297 1218 297 1167 l 436 1218 q 393 1071 436 1114 q 267 1028 350 1028 q 140 1071 183 1028 q 97 1218 97 1114 l 236 1218 z "},"ŭ":{"ha":506,"x_min":8,"x_max":497,"o":"m 497 0 l 261 0 l 261 61 l 244 61 q 135 -14 206 -14 q 46 28 83 -14 q 8 168 8 71 l 8 708 l 244 708 l 244 197 q 251 186 244 186 q 261 193 257 186 l 261 708 l 497 708 l 497 0 m 219 954 q 250 903 219 903 q 281 954 281 903 l 419 954 q 376 807 419 850 q 250 764 333 764 q 124 807 167 764 q 81 954 81 850 l 219 954 z "},"Ů":{"ha":533,"x_min":8,"x_max":525,"o":"m 258 972 l 258 225 q 267 203 258 203 q 275 225 275 203 l 275 972 l 525 972 l 525 244 q 457 53 525 119 q 263 -14 389 -14 q 73 52 138 -14 q 8 244 8 118 l 8 972 l 258 972 m 147 1124 q 179 1201 147 1176 q 265 1225 211 1225 q 353 1200 321 1225 q 386 1124 386 1175 q 354 1046 386 1071 q 267 1021 322 1021 q 179 1046 211 1021 q 147 1124 147 1071 m 224 1124 q 267 1089 224 1089 q 310 1124 310 1089 q 267 1157 310 1157 q 224 1124 224 1157 z "},"ů":{"ha":506,"x_min":8,"x_max":497,"o":"m 497 0 l 261 0 l 261 61 l 244 61 q 135 -14 206 -14 q 46 28 83 -14 q 8 168 8 71 l 8 708 l 244 708 l 244 197 q 251 186 244 186 q 261 193 257 186 l 261 708 l 497 708 l 497 0 m 131 860 q 163 937 131 913 q 249 961 194 961 q 337 936 304 961 q 369 860 369 911 q 338 782 369 807 q 250 757 306 757 q 163 782 194 757 q 131 860 131 807 m 207 860 q 250 825 207 825 q 293 860 293 825 q 250 893 293 893 q 207 860 207 893 z "},"Ű":{"ha":533,"x_min":8,"x_max":525,"o":"m 258 972 l 258 225 q 267 203 258 203 q 275 225 275 203 l 275 972 l 525 972 l 525 244 q 457 53 525 119 q 263 -14 389 -14 q 73 52 138 -14 q 8 244 8 118 l 8 972 l 258 972 m 113 1028 l 153 1218 l 292 1218 l 225 1028 l 113 1028 m 269 1028 l 310 1218 l 449 1218 l 382 1028 l 269 1028 z "},"ű":{"ha":506,"x_min":8,"x_max":497,"o":"m 497 0 l 261 0 l 261 61 l 244 61 q 135 -14 206 -14 q 46 28 83 -14 q 8 168 8 71 l 8 708 l 244 708 l 244 197 q 251 186 244 186 q 261 193 257 186 l 261 708 l 497 708 l 497 0 m 96 764 l 136 954 l 275 954 l 208 764 l 96 764 m 253 764 l 293 954 l 432 954 l 365 764 l 253 764 z "},"Ų":{"ha":533,"x_min":8,"x_max":525,"o":"m 258 972 l 258 225 q 267 203 258 203 q 275 225 275 203 l 275 972 l 525 972 l 525 244 q 457 53 525 119 q 263 -14 389 -14 q 73 52 138 -14 q 8 244 8 118 l 8 972 l 258 972 m 364 11 l 364 1 q 314 -22 332 1 q 296 -69 296 -44 q 308 -103 296 -89 q 344 -117 319 -117 q 353 -117 349 -117 q 364 -115 358 -117 l 364 -233 q 322 -242 342 -240 q 285 -244 303 -244 q 177 -211 214 -244 q 140 -133 140 -178 q 153 -83 140 -108 q 194 -36 167 -57 q 265 -2 222 -15 q 364 11 307 11 z "},"ų":{"ha":506,"x_min":8,"x_max":497,"o":"m 497 0 l 261 0 l 261 61 l 244 61 q 135 -14 206 -14 q 46 28 83 -14 q 8 168 8 71 l 8 708 l 244 708 l 244 197 q 251 186 244 186 q 261 193 257 186 l 261 708 l 497 708 l 497 0 m 497 11 l 497 1 q 447 -22 465 1 q 429 -69 429 -44 q 441 -103 429 -89 q 478 -117 453 -117 q 487 -117 482 -117 q 497 -115 492 -117 l 497 -233 q 456 -242 475 -240 q 418 -244 436 -244 q 310 -211 347 -244 q 274 -133 274 -178 q 287 -83 274 -108 q 328 -36 300 -57 q 398 -2 356 -15 q 497 11 440 11 z "},"Ŵ":{"ha":703,"x_min":4,"x_max":699,"o":"m 254 972 l 240 436 l 257 436 l 271 972 l 432 972 l 446 436 l 463 436 l 449 972 l 699 972 l 632 0 l 357 0 l 357 343 l 340 343 l 340 0 l 65 0 l 4 972 l 254 972 m 213 1028 l 268 1218 l 435 1218 l 490 1028 l 363 1028 l 356 1092 l 347 1092 l 340 1028 l 213 1028 z "},"ŵ":{"ha":678,"x_min":6,"x_max":672,"o":"m 242 708 l 228 335 l 244 335 l 258 708 l 419 708 l 433 335 l 450 335 l 436 708 l 672 708 l 594 0 l 347 0 l 347 228 l 331 228 l 331 0 l 83 0 l 6 708 l 242 708 m 200 764 l 256 954 l 422 954 l 478 764 l 350 764 l 343 828 l 335 828 l 328 764 l 200 764 z "},"Ŷ":{"ha":525,"x_min":4,"x_max":521,"o":"m 254 972 l 254 607 l 271 607 l 271 972 l 521 972 l 385 264 l 385 0 l 135 0 l 135 264 l 4 972 l 254 972 m 124 1028 l 179 1218 l 346 1218 l 401 1028 l 274 1028 l 267 1092 l 258 1092 l 251 1028 l 124 1028 z "},"ŷ":{"ha":506,"x_min":8,"x_max":497,"o":"m 497 -81 q 435 -237 497 -182 q 254 -292 372 -292 q 72 -236 136 -292 q 8 -81 8 -181 l 8 -36 l 244 -36 l 244 -67 q 253 -89 244 -89 q 261 -64 261 -89 l 261 61 l 244 61 q 135 -14 206 -14 q 46 28 83 -14 q 8 168 8 71 l 8 708 l 244 708 l 244 197 q 251 186 244 186 q 261 193 257 186 l 261 708 l 497 708 l 497 -81 m 111 764 l 167 954 l 333 954 l 389 764 l 261 764 l 254 828 l 246 828 l 239 764 l 111 764 z "},"Ź":{"ha":469,"x_min":4,"x_max":465,"o":"m 450 972 l 450 754 l 260 229 l 269 217 l 465 217 l 465 0 l 4 0 l 4 217 l 196 743 l 185 756 l 18 756 l 18 972 l 450 972 m 153 1028 l 193 1218 l 374 1218 l 306 1028 l 153 1028 z "},"ź":{"ha":435,"x_min":8,"x_max":426,"o":"m 8 0 l 8 201 l 158 490 l 151 506 l 15 506 l 15 708 l 417 708 l 417 507 l 267 217 l 275 203 l 426 203 l 426 0 l 8 0 m 143 763 l 183 953 l 364 953 l 296 763 l 143 763 z "},"Ż":{"ha":469,"x_min":4,"x_max":465,"o":"m 450 972 l 450 754 l 260 229 l 269 217 l 465 217 l 465 0 l 4 0 l 4 217 l 196 743 l 185 756 l 18 756 l 18 972 l 450 972 m 136 1124 q 156 1198 136 1171 q 233 1225 176 1225 q 312 1197 290 1225 q 333 1122 333 1169 q 313 1048 333 1075 q 235 1021 292 1021 q 157 1048 178 1021 q 136 1124 136 1075 z "},"ż":{"ha":435,"x_min":8,"x_max":426,"o":"m 8 0 l 8 201 l 158 490 l 151 506 l 15 506 l 15 708 l 417 708 l 417 507 l 267 217 l 275 203 l 426 203 l 426 0 l 8 0 m 126 858 q 147 933 126 906 q 224 960 167 960 q 302 932 281 960 q 324 857 324 904 q 303 783 324 810 q 225 756 282 756 q 147 783 168 756 q 126 858 126 810 z "},"ſ":{"ha":675,"x_min":8,"x_max":667,"o":"m 8 972 l 667 972 l 667 0 l 8 0 l 8 972 m 338 543 l 556 903 l 119 903 l 338 543 m 78 115 l 303 486 l 78 857 l 78 115 m 597 115 l 597 857 l 372 486 l 597 115 m 119 69 l 556 69 l 338 429 l 119 69 z "},"̦":{"ha":229,"x_min":10,"x_max":221,"o":"m 32 -14 l 221 -14 l 129 -204 l 10 -204 l 32 -14 z "},"ȷ":{"ha":254,"x_min":-56,"x_max":244,"o":"m 244 -40 q 189 -231 244 -169 q 39 -292 133 -292 q -56 -279 -6 -292 l -56 -76 q -47 -78 -51 -78 q -37 -78 -42 -78 q -5 -70 -18 -78 q 8 -43 8 -62 l 8 708 l 244 708 l 244 -40 z "}}}
